<svg width="32" height="32" viewBox="0 0 32 32" fill="none" xmlns="http://www.w3.org/2000/svg">
<g clip-path="url(#clip0_3543_6017)">
<path d="M20.6523 5.12515C21.2559 4.42804 21.7162 3.61832 22.0066 2.74248C22.2971 1.86665 22.412 0.941948 22.3448 0.0214844C20.4916 0.171374 18.7714 1.04471 17.5547 2.45332C16.9721 3.12844 16.5306 3.91383 16.2563 4.763C15.9821 5.61217 15.8806 6.50784 15.958 7.39699C16.862 7.40454 17.7556 7.20356 18.5696 6.80961C19.3836 6.41565 20.0962 5.8393 20.6523 5.12515ZM24.676 17.0284C24.6867 15.8024 25.0089 14.5994 25.6124 13.5329C26.2158 12.4664 27.0805 11.5715 28.1248 10.9328C27.4657 9.9812 26.5944 9.19661 25.5801 8.64119C24.5657 8.08577 23.4361 7.77481 22.2809 7.73297C19.7901 7.47699 17.4909 9.18888 16.1656 9.18888C14.8404 9.18888 12.9722 7.76497 10.8965 7.79697C9.53956 7.84176 8.21733 8.23819 7.05882 8.94759C5.9003 9.65699 4.94506 10.6551 4.28625 11.8447C1.47608 16.7404 3.56774 24.0199 6.37791 27.9716C7.65526 29.9075 9.25195 32.0994 11.3596 32.0194C13.4672 31.9394 14.1538 30.7074 16.5967 30.7074C19.0396 30.7074 19.7901 32.0194 21.8658 31.9714C23.9415 31.9234 25.4104 29.9875 26.7516 28.0516C27.7017 26.6462 28.4439 25.1104 28.9551 23.4919C27.6897 22.9512 26.6101 22.0509 25.8496 20.9022C25.0891 19.7535 24.6811 18.4068 24.676 17.0284Z" fill="black"/>
</g>
<defs>
<clipPath id="clip0_3543_6017">
<rect width="32" height="32" fill="white"/>
</clipPath>
</defs>
</svg>
