<svg width="32" height="33" viewBox="0 0 32 33" fill="none" xmlns="http://www.w3.org/2000/svg">
<g clip-path="url(#clip0_3542_5982)">
<path d="M31.9827 16.6802C31.9827 15.3385 31.8739 14.3595 31.6383 13.3442H16.3184V19.3996H25.3108C25.1296 20.9045 24.1506 23.1708 21.9749 24.6936L21.9444 24.8963L26.7883 28.6488L27.1239 28.6823C30.2059 25.8359 31.9827 21.6478 31.9827 16.6802Z" fill="#4285F4"/>
<path d="M16.3169 32.6349C20.7224 32.6349 24.4209 31.1844 27.1224 28.6825L21.9734 24.6938C20.5955 25.6547 18.7462 26.3255 16.3169 26.3255C12.0019 26.3255 8.33968 23.4792 7.03419 19.5449L6.84283 19.5612L1.8061 23.4592L1.74023 23.6423C4.42346 28.9725 9.93501 32.6349 16.3169 32.6349Z" fill="#34A853"/>
<path d="M7.0344 19.5443C6.68993 18.529 6.49058 17.4411 6.49058 16.3171C6.49058 15.193 6.68994 14.1052 7.01628 13.0899L7.00715 12.8737L1.9073 8.91309L1.74045 8.99245C0.63456 11.2044 0 13.6882 0 16.3171C0 18.946 0.63456 21.4297 1.74045 23.6416L7.0344 19.5443Z" fill="#FBBC05"/>
<path d="M16.3169 6.30974C19.3808 6.30974 21.4476 7.63323 22.6261 8.73924L27.2311 4.24294C24.4029 1.61408 20.7224 0.000488281 16.3169 0.000488281C9.93501 0.000488281 4.42346 3.66275 1.74023 8.99297L7.01607 13.0904C8.33968 9.1562 12.0019 6.30974 16.3169 6.30974Z" fill="#EB4335"/>
</g>
<defs>
<clipPath id="clip0_3542_5982">
<rect width="32" height="32.7467" fill="white"/>
</clipPath>
</defs>
</svg>
