<svg width="44" height="44" viewBox="0 0 44 44" fill="none" xmlns="http://www.w3.org/2000/svg">
<g id="local_mall_24px">
<path id="icon/maps/local_mall_24px" fill-rule="evenodd" clip-rule="evenodd" d="M31.1667 11.9167H34.8333C36.85 11.9167 38.5 13.5667 38.5 15.5833V37.5833C38.5 39.6 36.85 41.25 34.8333 41.25H9.16667C7.15 41.25 5.5 39.6 5.5 37.5833V15.5833C5.5 13.5667 7.15 11.9167 9.16667 11.9167H12.8333C12.8333 6.85667 16.94 2.75 22 2.75C27.06 2.75 31.1667 6.85667 31.1667 11.9167ZM27.5 11.9167C27.5 8.87333 25.0433 6.41667 22 6.41667C18.9567 6.41667 16.5 8.87333 16.5 11.9167H27.5ZM9.16667 37.5833V15.5833H34.8333V37.5833H9.16667ZM16.5 17.4167C16.5 20.46 18.9567 22.9167 22 22.9167C25.0433 22.9167 27.5 20.46 27.5 17.4167H31.1667C31.1667 22.4767 27.06 26.5833 22 26.5833C16.94 26.5833 12.8333 22.4767 12.8333 17.4167H16.5Z" fill="black"/>
</g>
</svg>
