<svg width="20" height="20" viewBox="0 0 20 20" fill="none" xmlns="http://www.w3.org/2000/svg">
<g opacity="0.7" clip-path="url(#clip0_3088_5511)">
<path d="M1.875 16.875H13.125" stroke="black" stroke-width="1.5" stroke-linecap="round" stroke-linejoin="round"/>
<path d="M6.87501 9.10243L4.58204 6.87508C4.50404 6.8049 4.44497 6.71621 4.41027 6.61719C4.37557 6.51817 4.36636 6.41201 4.38348 6.30849C4.40061 6.20498 4.44351 6.10744 4.50825 6.02487C4.57299 5.9423 4.65747 5.87735 4.75391 5.83602L5.31251 5.62508L9.80704 7.27899L14.0914 4.7204C14.6057 4.41775 15.2113 4.30904 15.7987 4.41392C16.3862 4.5188 16.9167 4.83035 17.2945 5.29227L18.75 7.15946L7.2336 14.0345C6.76838 14.3053 6.22815 14.4188 5.69326 14.358C5.15837 14.2972 4.6574 14.0654 4.26485 13.697L1.44766 10.9376C1.3719 10.8666 1.31502 10.7778 1.28218 10.6793C1.24933 10.5807 1.24155 10.4756 1.25954 10.3733C1.27753 10.271 1.32072 10.1749 1.38521 10.0935C1.4497 10.0121 1.53346 9.94802 1.62891 9.90712L1.87501 9.7868L4.3586 10.6251L6.87501 9.10243Z" stroke="black" stroke-width="1.5" stroke-linecap="round" stroke-linejoin="round"/>
</g>
<defs>
<clipPath id="clip0_3088_5511">
<rect width="20" height="20" fill="white"/>
</clipPath>
</defs>
</svg>
