<svg width="30" height="30" viewBox="0 0 30 30" fill="none" xmlns="http://www.w3.org/2000/svg">
<circle cx="15" cy="15" r="15" fill="#0770CF"/>
<mask id="path-2-inside-1_147_802" fill="white">
<path d="M24.3264 19.4726L14.8962 13.3311V11.9047C16.0849 11.7066 16.9962 10.6764 16.9962 9.40846C16.9962 8.02166 15.8868 6.91223 14.5 6.91223C13.1132 6.91223 12.0038 8.02166 12.0038 9.40846C12.0038 9.64619 12.1623 9.80468 12.4 9.80468C12.6377 9.80468 12.7962 9.64619 12.7962 9.40846C12.7962 8.45751 13.5491 7.70468 14.5 7.70468C15.4509 7.70468 16.2038 8.45751 16.2038 9.40846C16.2038 10.3594 15.4509 11.1122 14.5 11.1122C14.2623 11.1122 14.1038 11.2707 14.1038 11.5085V13.3311L4.63396 19.5122C4.23774 19.7896 4 20.2254 4 20.7009C4 21.4537 4.55472 22.0481 5.26792 22.0877H23.6925C24.4057 22.0481 25 21.4537 25 20.7009C25 20.1858 24.7226 19.75 24.3264 19.4726ZM23.5736 21.3349H5.42642C5.06981 21.3349 4.79245 21.0575 4.79245 20.7009C4.79245 20.5028 4.91132 20.3047 5.06981 20.1858L14.5 14.0047L23.8906 20.1066C24.0887 20.2254 24.2472 20.4235 24.2472 20.6613C24.2075 21.0575 23.9302 21.3349 23.5736 21.3349Z"/>
</mask>
<path d="M24.3264 19.4726L14.8962 13.3311V11.9047C16.0849 11.7066 16.9962 10.6764 16.9962 9.40846C16.9962 8.02166 15.8868 6.91223 14.5 6.91223C13.1132 6.91223 12.0038 8.02166 12.0038 9.40846C12.0038 9.64619 12.1623 9.80468 12.4 9.80468C12.6377 9.80468 12.7962 9.64619 12.7962 9.40846C12.7962 8.45751 13.5491 7.70468 14.5 7.70468C15.4509 7.70468 16.2038 8.45751 16.2038 9.40846C16.2038 10.3594 15.4509 11.1122 14.5 11.1122C14.2623 11.1122 14.1038 11.2707 14.1038 11.5085V13.3311L4.63396 19.5122C4.23774 19.7896 4 20.2254 4 20.7009C4 21.4537 4.55472 22.0481 5.26792 22.0877H23.6925C24.4057 22.0481 25 21.4537 25 20.7009C25 20.1858 24.7226 19.75 24.3264 19.4726ZM23.5736 21.3349H5.42642C5.06981 21.3349 4.79245 21.0575 4.79245 20.7009C4.79245 20.5028 4.91132 20.3047 5.06981 20.1858L14.5 14.0047L23.8906 20.1066C24.0887 20.2254 24.2472 20.4235 24.2472 20.6613C24.2075 21.0575 23.9302 21.3349 23.5736 21.3349Z" fill="white"/>
<path d="M24.3264 19.4726L26.6203 16.1957L26.5654 16.1573L26.5093 16.1208L24.3264 19.4726ZM14.8962 13.3311H10.8962V15.4995L12.7133 16.6829L14.8962 13.3311ZM14.8962 11.9047L14.2386 7.95911L10.8962 8.51617V11.9047H14.8962ZM14.1038 13.3311L16.2901 16.6807L18.1038 15.4969V13.3311H14.1038ZM4.63396 19.5122L2.44761 16.1626L2.39327 16.1981L2.34011 16.2353L4.63396 19.5122ZM5.26792 22.0877L5.04604 26.0815L5.1569 26.0877H5.26792V22.0877ZM23.6925 22.0877V26.0877H23.8035L23.9143 26.0815L23.6925 22.0877ZM5.06981 20.1858L2.87703 16.8404L2.77112 16.9098L2.66981 16.9858L5.06981 20.1858ZM14.5 14.0047L16.6795 10.6506L14.4905 9.22822L12.3072 10.6593L14.5 14.0047ZM23.8906 20.1066L21.7111 23.4607L21.7712 23.4997L21.8326 23.5365L23.8906 20.1066ZM24.2472 20.6613L28.2273 21.0593L28.2472 20.8608V20.6613H24.2472ZM26.5093 16.1208L17.0791 9.97925L12.7133 16.6829L22.1435 22.8244L26.5093 16.1208ZM18.8962 13.3311V11.9047H10.8962V13.3311H18.8962ZM15.5538 15.8503C18.644 15.3352 20.9962 12.6593 20.9962 9.40846H12.9962C12.9962 8.69349 13.5258 8.0779 14.2386 7.95911L15.5538 15.8503ZM20.9962 9.40846C20.9962 5.81253 18.0959 2.91223 14.5 2.91223V10.9122C13.6777 10.9122 12.9962 10.2308 12.9962 9.40846H20.9962ZM14.5 2.91223C10.9041 2.91223 8.00377 5.81253 8.00377 9.40846H16.0038C16.0038 10.2308 15.3223 10.9122 14.5 10.9122V2.91223ZM8.00377 9.40846C8.00377 10.4363 8.36385 11.6037 9.28431 12.5241C10.2048 13.4446 11.3721 13.8047 12.4 13.8047V5.80468C13.1901 5.80468 14.1594 6.08552 14.9412 6.86729C15.7229 7.64907 16.0038 8.61833 16.0038 9.40846H8.00377ZM12.4 13.8047C13.4279 13.8047 14.5952 13.4446 15.5157 12.5241C16.4361 11.6037 16.7962 10.4363 16.7962 9.40846H8.79623C8.79623 8.61833 9.07706 7.64907 9.85884 6.86729C10.6406 6.08552 11.6099 5.80468 12.4 5.80468V13.8047ZM16.7962 9.40846C16.7962 10.6667 15.7582 11.7047 14.5 11.7047V3.70468C11.3399 3.70468 8.79623 6.24837 8.79623 9.40846H16.7962ZM14.5 11.7047C13.2418 11.7047 12.2038 10.6667 12.2038 9.40846H20.2038C20.2038 6.24837 17.6601 3.70468 14.5 3.70468V11.7047ZM12.2038 9.40846C12.2038 8.15026 13.2418 7.11223 14.5 7.11223V15.1122C17.6601 15.1122 20.2038 12.5685 20.2038 9.40846H12.2038ZM14.5 7.11223C13.4721 7.11223 12.3048 7.47231 11.3843 8.39276C10.4639 9.31322 10.1038 10.4806 10.1038 11.5085H18.1038C18.1038 12.2986 17.8229 13.2678 17.0412 14.0496C16.2594 14.8314 15.2901 15.1122 14.5 15.1122V7.11223ZM10.1038 11.5085V13.3311H18.1038V11.5085H10.1038ZM11.9174 9.98149L2.44761 16.1626L6.82032 22.8618L16.2901 16.6807L11.9174 9.98149ZM2.34011 16.2353C0.936641 17.2177 0 18.8462 0 20.7009H8C8 21.6047 7.53883 22.3614 6.92781 22.7892L2.34011 16.2353ZM0 20.7009C0 23.4739 2.11208 25.9185 5.04604 26.0815L5.4898 18.0939C6.99735 18.1776 8 19.4335 8 20.7009H0ZM5.26792 26.0877H23.6925V18.0877H5.26792V26.0877ZM23.9143 26.0815C26.6932 25.9272 29 23.6304 29 20.7009H21C21 19.2771 22.1182 18.169 23.4706 18.0939L23.9143 26.0815ZM29 20.7009C29 18.6543 27.886 17.0817 26.6203 16.1957L22.0326 22.7495C21.5593 22.4183 21 21.7173 21 20.7009H29ZM23.5736 17.3349H5.42641V25.3349H23.5736V17.3349ZM5.42641 17.3349C7.27894 17.3349 8.79245 18.8484 8.79245 20.7009H0.792453C0.792453 23.2667 2.86068 25.3349 5.42641 25.3349V17.3349ZM8.79245 20.7009C8.79245 21.3945 8.58942 21.9582 8.36833 22.3562C8.1465 22.7555 7.84329 23.1057 7.46981 23.3858L2.66981 16.9858C1.7203 17.6979 0.792453 18.996 0.792453 20.7009H8.79245ZM7.26259 23.5312L16.6928 17.3501L12.3072 10.6593L2.87703 16.8404L7.26259 23.5312ZM12.3205 17.3588L21.7111 23.4607L26.07 16.7525L16.6795 10.6506L12.3205 17.3588ZM21.8326 23.5365C21.3047 23.2198 20.2472 22.3091 20.2472 20.6613H28.2472C28.2472 18.538 26.8726 17.231 25.9485 16.6766L21.8326 23.5365ZM20.267 20.2633C20.3299 19.6342 20.6045 18.9146 21.2008 18.3182C21.8141 17.7049 22.6659 17.3349 23.5736 17.3349V25.3349C26.3337 25.3349 28.0198 23.134 28.2273 21.0593L20.267 20.2633Z" fill="white" mask="url(#path-2-inside-1_147_802)"/>
</svg>
