<svg width="20" height="24" viewBox="0 0 20 24" fill="none" xmlns="http://www.w3.org/2000/svg">
<path d="M19.7076 10.7075C19.6147 10.8005 19.5044 10.8742 19.383 10.9246C19.2616 10.9749 19.1315 11.0008 19.0001 11.0008C18.8687 11.0008 18.7385 10.9749 18.6171 10.9246C18.4957 10.8742 18.3854 10.8005 18.2926 10.7075L11.0001 3.41374V23C11.0001 23.2652 10.8947 23.5196 10.7072 23.7071C10.5196 23.8946 10.2653 24 10.0001 24C9.73485 24 9.4805 23.8946 9.29296 23.7071C9.10542 23.5196 9.00007 23.2652 9.00007 23V3.41374L1.70757 10.7075C1.51993 10.8951 1.26543 11.0005 1.00007 11.0005C0.734704 11.0005 0.480208 10.8951 0.292568 10.7075C0.104927 10.5199 -0.000488279 10.2654 -0.000488281 9.99999C-0.000488283 9.73463 0.104927 9.48013 0.292568 9.29249L9.29257 0.292493C9.38544 0.199517 9.49573 0.125758 9.61713 0.0754335C9.73853 0.0251092 9.86865 -0.000793457 10.0001 -0.000793457C10.1315 -0.000793457 10.2616 0.0251092 10.383 0.0754335C10.5044 0.125758 10.6147 0.199517 10.7076 0.292493L19.7076 9.29249C19.8005 9.38537 19.8743 9.49566 19.9246 9.61705C19.975 9.73845 20.0009 9.86858 20.0009 9.99999C20.0009 10.1314 19.975 10.2615 19.9246 10.3829C19.8743 10.5043 19.8005 10.6146 19.7076 10.7075Z" fill="black"/>
</svg>
