<svg width="44" height="44" viewBox="0 0 44 44" fill="none" xmlns="http://www.w3.org/2000/svg">
<path d="M25.75 31C25.75 31.1989 25.671 31.3897 25.5303 31.5303C25.3897 31.671 25.1989 31.75 25 31.75H19C18.8011 31.75 18.6103 31.671 18.4697 31.5303C18.329 31.3897 18.25 31.1989 18.25 31C18.25 30.8011 18.329 30.6103 18.4697 30.4697C18.6103 30.329 18.8011 30.25 19 30.25H25C25.1989 30.25 25.3897 30.329 25.5303 30.4697C25.671 30.6103 25.75 30.8011 25.75 31ZM30.7947 26.4944C30.2735 25.5981 29.5 23.0622 29.5 19.75C29.5 17.7609 28.7098 15.8532 27.3033 14.4467C25.8968 13.0402 23.9891 12.25 22 12.25C20.0109 12.25 18.1032 13.0402 16.6967 14.4467C15.2902 15.8532 14.5 17.7609 14.5 19.75C14.5 23.0631 13.7256 25.5981 13.2053 26.4944C13.0725 26.7222 13.002 26.9811 13.0011 27.2449C13.0002 27.5086 13.0689 27.768 13.2002 27.9967C13.3315 28.2255 13.5208 28.4156 13.749 28.5478C13.9772 28.6801 14.2362 28.7498 14.5 28.75H29.5C29.7637 28.7496 30.0226 28.6798 30.2507 28.5475C30.4788 28.4151 30.668 28.225 30.7992 27.9963C30.9303 27.7676 30.9989 27.5083 30.998 27.2446C30.997 26.9809 30.9266 26.7222 30.7938 26.4944H30.7947Z" fill="#333333"/>
<rect x="0.25" y="0.25" width="43.5" height="43.5" rx="21.75" stroke="#D7D7D7" stroke-width="0.5"/>
</svg>
