<svg width="22" height="18" viewBox="0 0 22 18" fill="none" xmlns="http://www.w3.org/2000/svg">
<path d="M21.2395 11.2406V11.2313C21.2378 11.2242 21.2356 11.2173 21.2329 11.2106C21.1707 11.0408 21.0983 10.8749 21.0163 10.7138L17.1191 1.85625C17.0816 1.77094 17.0285 1.69336 16.9626 1.6275C16.684 1.34885 16.3532 1.12781 15.9892 0.977006C15.6252 0.826199 15.235 0.748579 14.841 0.748579C14.447 0.748579 14.0568 0.826199 13.6928 0.977006C13.3288 1.12781 12.998 1.34885 12.7195 1.6275C12.5793 1.76781 12.5004 1.95793 12.5001 2.15625V4.5H9.50008V2.15625C9.50016 2.05773 9.48082 1.96016 9.44318 1.86911C9.40554 1.77807 9.35033 1.69533 9.2807 1.62563C9.00212 1.34698 8.67137 1.12594 8.30735 0.975131C7.94333 0.824324 7.55316 0.746704 7.15914 0.746704C6.76512 0.746704 6.37495 0.824324 6.01093 0.975131C5.64691 1.12594 5.31616 1.34698 5.03758 1.62563C4.97163 1.69149 4.91854 1.76906 4.88102 1.85438L0.987578 10.7138C0.905566 10.8749 0.83325 11.0408 0.771016 11.2106C0.768408 11.217 0.766216 11.2236 0.764453 11.2303C0.764453 11.2303 0.764453 11.2378 0.764453 11.2406C0.377255 12.3594 0.446529 13.5857 0.95726 14.6537C1.46799 15.7218 2.37903 16.5455 3.49295 16.9465C4.60686 17.3474 5.83391 17.2932 6.90816 16.7957C7.98241 16.2982 8.81732 15.3973 9.23195 14.2884C9.41452 13.7903 9.50659 13.2636 9.50383 12.7331V6H12.5038V12.7341C12.5011 13.2646 12.5931 13.7913 12.7757 14.2894C13.1903 15.3983 14.0252 16.2991 15.0995 16.7966C16.1737 17.2942 17.4008 17.3483 18.5147 16.9474C19.6286 16.5465 20.5397 15.7227 21.0504 14.6547C21.5611 13.5866 21.6304 12.3603 21.2432 11.2416L21.2395 11.2406ZM7.81914 13.7719C7.54219 14.5109 6.98521 15.1109 6.26888 15.4421C5.55256 15.7733 4.73459 15.8089 3.99221 15.5412C3.24984 15.2734 2.64285 14.724 2.30278 14.0118C1.96271 13.2997 1.91694 12.4822 2.17539 11.7366L2.34508 11.3494C2.65696 10.7565 3.15828 10.2851 3.76916 10.0103C4.38005 9.73544 5.06535 9.67295 5.71587 9.83277C6.36639 9.9926 6.94471 10.3655 7.35867 10.8922C7.77264 11.4188 7.99843 12.0689 8.00008 12.7388V12.75C8.00002 13.0998 7.93879 13.4469 7.81914 13.7756V13.7719ZM18.0313 15.5691C17.5778 15.7351 17.091 15.7891 16.6121 15.7267C16.1333 15.6642 15.6766 15.4871 15.2808 15.2104C14.8851 14.9336 14.562 14.5654 14.339 14.1371C14.1161 13.7088 13.9998 13.2329 14.0001 12.75V12.7397C14.0026 12.0701 14.2289 11.4207 14.6432 10.8947C15.0575 10.3686 15.6358 9.99634 16.2861 9.83699C16.9364 9.67765 17.6213 9.74043 18.2318 10.0153C18.8424 10.2903 19.3433 10.7615 19.6551 11.3541L19.8248 11.7413C20.0915 12.4868 20.0527 13.3076 19.7167 14.0247C19.3808 14.7417 18.7749 15.2969 18.0313 15.5691Z" fill="white"/>
</svg>
