<svg width="24" height="24" viewBox="0 0 24 24" fill="none" xmlns="http://www.w3.org/2000/svg">
<path d="M17.031 12.5301L9.53104 20.0301C9.46136 20.0997 9.37863 20.155 9.28759 20.1927C9.19654 20.2304 9.09896 20.2499 9.00042 20.2499C8.90187 20.2499 8.80429 20.2304 8.71324 20.1927C8.6222 20.155 8.53947 20.0997 8.46979 20.0301C8.40011 19.9604 8.34483 19.8777 8.30712 19.7866C8.26941 19.6956 8.25 19.598 8.25 19.4994C8.25 19.4009 8.26941 19.3033 8.30712 19.2123C8.34483 19.1212 8.40011 19.0385 8.46979 18.9688L15.4401 11.9994L8.46979 5.03007C8.32906 4.88933 8.25 4.69846 8.25 4.49944C8.25 4.30042 8.32906 4.10955 8.46979 3.96882C8.61052 3.82808 8.80139 3.74902 9.00042 3.74902C9.19944 3.74902 9.39031 3.82808 9.53104 3.96882L17.031 11.4688C17.1008 11.5385 17.1561 11.6212 17.1938 11.7122C17.2316 11.8033 17.251 11.9009 17.251 11.9994C17.251 12.098 17.2316 12.1956 17.1938 12.2866C17.1561 12.3777 17.1008 12.4604 17.031 12.5301Z" fill="black"/>
</svg>
