<svg width="32" height="33" viewBox="0 0 32 33" fill="none" xmlns="http://www.w3.org/2000/svg">
<circle cx="16" cy="16.736" r="16" fill="#EAEAEA"/>
<g clip-path="url(#clip0_1839_4010)">
<path d="M16.001 9.26497C18.35 7.15597 21.98 7.22597 24.243 9.49297C26.505 11.761 26.583 15.373 24.479 17.729L15.999 26.221L7.52101 17.729C5.41701 15.373 5.49601 11.755 7.75701 9.49297C10.022 7.22897 13.645 7.15297 16.001 9.26497ZM22.827 10.906C21.327 9.40397 18.907 9.34297 17.337 10.753L16.002 11.951L14.666 10.754C13.091 9.34197 10.676 9.40397 9.17201 10.908C7.68201 12.398 7.60701 14.783 8.98001 16.359L16 23.39L23.02 16.36C24.394 14.783 24.319 12.401 22.827 10.906Z" fill="#3E3E3E"/>
</g>
<defs>
<clipPath id="clip0_1839_4010">
<rect width="24" height="24" fill="white" transform="translate(4 4.73596)"/>
</clipPath>
</defs>
</svg>
