<svg width="22" height="16" viewBox="0 0 22 16" fill="none" xmlns="http://www.w3.org/2000/svg">
<path d="M19.6666 0.5H1.66663C1.2688 0.5 0.88727 0.658035 0.605966 0.93934C0.324661 1.22064 0.166626 1.60218 0.166626 2V14C0.166626 14.3978 0.324661 14.7794 0.605966 15.0607C0.88727 15.342 1.2688 15.5 1.66663 15.5H19.6666C20.0645 15.5 20.446 15.342 20.7273 15.0607C21.0086 14.7794 21.1666 14.3978 21.1666 14V2C21.1666 1.60218 21.0086 1.22064 20.7273 0.93934C20.446 0.658035 20.0645 0.5 19.6666 0.5ZM11.4166 12.5H9.91663C9.71771 12.5 9.52695 12.421 9.3863 12.2803C9.24564 12.1397 9.16663 11.9489 9.16663 11.75C9.16663 11.5511 9.24564 11.3603 9.3863 11.2197C9.52695 11.079 9.71771 11 9.91663 11H11.4166C11.6155 11 11.8063 11.079 11.947 11.2197C12.0876 11.3603 12.1666 11.5511 12.1666 11.75C12.1666 11.9489 12.0876 12.1397 11.947 12.2803C11.8063 12.421 11.6155 12.5 11.4166 12.5ZM17.4166 12.5H14.4166C14.2177 12.5 14.0269 12.421 13.8863 12.2803C13.7456 12.1397 13.6666 11.9489 13.6666 11.75C13.6666 11.5511 13.7456 11.3603 13.8863 11.2197C14.0269 11.079 14.2177 11 14.4166 11H17.4166C17.6155 11 17.8063 11.079 17.947 11.2197C18.0876 11.3603 18.1666 11.5511 18.1666 11.75C18.1666 11.9489 18.0876 12.1397 17.947 12.2803C17.8063 12.421 17.6155 12.5 17.4166 12.5ZM1.66663 4.25V2H19.6666V4.25H1.66663Z" fill="white"/>
</svg>
