<svg width="25" height="24" viewBox="0 0 25 24" fill="none" xmlns="http://www.w3.org/2000/svg">
<g clip-path="url(#clip0_188_4)">
<path d="M23.2537 11.0864L21.6194 10.3791L20.2316 7.67856C19.8565 6.93912 19.0957 6.47831 18.2651 6.48367H15.8754V5.80853C15.8754 4.58685 14.9002 3.59021 13.6785 3.59021H2.25467C1.03299 3.59021 0.0685019 4.5922 0.0685019 5.80853V16.15C0.0577854 16.8948 0.652552 17.5056 1.39735 17.5163C1.40271 17.5163 1.40807 17.5163 1.41878 17.5163H1.70277C1.70277 17.5699 1.69741 17.5913 1.69741 17.6235C1.69205 19.1559 2.92981 20.4044 4.46227 20.4098C5.99473 20.4151 7.24321 19.1774 7.24856 17.6449C7.24856 17.6342 7.24856 17.6288 7.24856 17.6181C7.24856 17.5806 7.24856 17.5645 7.24321 17.511H16.4755C16.4755 17.5645 16.4755 17.586 16.4755 17.6181C16.4701 19.1506 17.7079 20.3991 19.2403 20.4044C20.7728 20.4098 22.0213 19.172 22.0266 17.6396C22.0266 17.6288 22.0266 17.6235 22.0266 17.6128C22.0266 17.5753 22.0266 17.5592 22.0266 17.5056H22.7178C23.4626 17.5056 24.0681 16.9001 24.0681 16.1553C24.0681 16.15 24.0681 16.1446 24.0681 16.1339V12.3295C24.0788 11.8044 23.7573 11.3061 23.2537 11.0864ZM4.47835 19.3435C3.53529 19.3435 2.77442 18.5826 2.77442 17.6396C2.77442 16.6965 3.53529 15.9356 4.47835 15.9356C5.4214 15.9356 6.18227 16.6965 6.18227 17.6396C6.18227 18.5773 5.41604 19.3435 4.47835 19.3435ZM14.8037 16.4554H6.99137C6.54127 15.4748 5.55536 14.8479 4.47835 14.8533C3.39598 14.8479 2.41542 15.4695 1.96532 16.4554H1.41878C1.25268 16.4554 1.14015 16.3268 1.14015 16.1607V13.4012H14.8037V16.4554ZM14.8037 5.81389V12.3295H1.14015V5.81389C1.14015 5.18697 1.62775 4.66722 2.25467 4.66722H13.6785C14.3054 4.67258 14.8091 5.18697 14.8037 5.80853V5.81389ZM15.8754 7.56068H18.2651C18.6884 7.55532 19.0849 7.78572 19.2832 8.16616L20.3549 10.2398H15.8754V7.56068ZM19.2564 19.3435C18.3134 19.3435 17.5525 18.5826 17.5525 17.6396C17.5525 16.6965 18.3134 15.9356 19.2564 15.9356C20.1995 15.9356 20.9603 16.6965 20.9603 17.6396C20.9603 18.5773 20.1995 19.3435 19.2564 19.3435ZM23.0018 16.1607C23.0018 16.3268 22.8893 16.4554 22.7232 16.4554H21.7694C21.1211 15.0676 19.4707 14.4675 18.083 15.1158C17.4935 15.3891 17.0167 15.866 16.7434 16.4554H15.8754V11.3115H21.1264L22.8304 12.0616C22.9375 12.1152 23.0072 12.2331 23.0018 12.351V16.1607Z" fill="black"/>
</g>
<defs>
<clipPath id="clip0_188_4">
<rect width="24" height="24" fill="white" transform="translate(0.0683594)"/>
</clipPath>
</defs>
</svg>
