<svg width="24" height="17" viewBox="0 0 24 17" fill="none" xmlns="http://www.w3.org/2000/svg">
<g clip-path="url(#clip0_3520_6049)">
<path d="M0 2.5C0 1.39543 0.895431 0.5 2 0.5H22C23.1046 0.5 24 1.39543 24 2.5V14.5C24 15.6046 23.1046 16.5 22 16.5H2C0.89543 16.5 0 15.6046 0 14.5V2.5Z" fill="#FDEACE"/>
<path d="M14.5044 3.76349L9.33984 3.78125L9.49634 13.2362L14.6609 13.2184L14.5044 3.76349Z" fill="#FF5F00"/>
<path d="M9.67882 8.52808C9.64687 6.60503 10.5083 4.89632 11.8577 3.78797C10.8392 2.98875 9.56231 2.50815 8.17816 2.51289C4.89904 2.52412 2.29083 5.22548 2.34613 8.5532C2.40143 11.8809 5.09913 14.5641 8.37824 14.5529C9.76239 14.5481 11.0231 14.0588 12.0149 13.2527C10.6292 12.1705 9.71078 10.4511 9.67882 8.52808Z" fill="#EB001B"/>
<path d="M21.6512 8.44613C21.7065 11.7739 19.0982 14.4752 15.8191 14.4864C14.435 14.4912 13.1581 14.0106 12.1396 13.2114C13.5054 12.103 14.3504 10.3943 14.3185 8.47125C14.2865 6.54819 13.3683 4.84558 11.9823 3.7466C12.9742 2.94049 14.2349 2.4512 15.619 2.44646C18.8982 2.43523 21.5961 5.13514 21.6512 8.44613Z" fill="#F79E1B"/>
</g>
<defs>
<clipPath id="clip0_3520_6049">
<rect width="24" height="16" fill="white" transform="translate(0 0.5)"/>
</clipPath>
</defs>
</svg>
