<svg width="45" height="45" viewBox="0 0 45 45" fill="none" xmlns="http://www.w3.org/2000/svg">
<path d="M45 22.4993C45 29.9278 39 35.9993 31.5 35.9993C24.0714 35.9993 18 29.9278 18 22.4993C18 15.0707 24 8.99927 31.4286 8.99927C39 8.99927 45 15.0707 45 22.4993Z" fill="#FFB600"/>
<path d="M31.5 8.99927C38.9285 8.99927 45 15.0707 45 22.4993C45 29.9278 39 35.9993 31.5 35.9993C24.0714 35.9993 18 29.9278 18 22.4993" fill="#F7981D"/>
<path d="M31.5 8.99927C38.9286 8.99927 45 15.0707 45 22.4993C45 29.9278 39 35.9993 31.5 35.9993" fill="#FF8500"/>
<path d="M13.3571 8.99927C6 9.0707 0 15.0707 0 22.4993C0 29.9278 6 35.9993 13.5 35.9993C17 35.9993 20.1429 34.6421 22.5714 32.4993C23.0714 32.0707 23.5 31.5707 23.9286 31.0707H21.1429C20.7857 30.6421 20.4286 30.1421 20.1429 29.7136H24.9286C25.2143 29.285 25.5 28.785 25.7143 28.285H19.3571C19.1429 27.8564 18.9286 27.3564 18.7857 26.8564H26.2143C26.6429 25.4993 26.9286 24.0707 26.9286 22.5707C26.9286 21.5707 26.7857 20.6421 26.6429 19.7136H18.3571C18.4286 19.2136 18.5714 18.785 18.7143 18.285H26.1429C26 17.785 25.7857 17.285 25.5714 16.8564H19.2857C19.5 16.3564 19.7857 15.9278 20.0714 15.4278H24.8571C24.5714 14.9278 24.2143 14.4278 23.7857 13.9993H21.1429C21.5714 13.4993 22 13.0707 22.5 12.6421C20.1429 10.4278 16.9286 9.14212 13.4286 9.14212C13.4286 8.99927 13.4286 8.99927 13.3571 8.99927Z" fill="#FF5050"/>
<path d="M0 22.4997C0 29.9282 6 35.9997 13.5 35.9997C17 35.9997 20.1429 34.6425 22.5714 32.4997C23.0714 32.0711 23.5 31.5711 23.9286 31.0711H21.1429C20.7857 30.6425 20.4286 30.1425 20.1429 29.7139H24.9286C25.2143 29.2854 25.5 28.7854 25.7143 28.2854H19.3571C19.1429 27.8568 18.9286 27.3568 18.7857 26.8568H26.2143C26.6429 25.4997 26.9286 24.0711 26.9286 22.5711C26.9286 21.5711 26.7857 20.6425 26.6429 19.7139H18.3571C18.4286 19.2139 18.5714 18.7854 18.7143 18.2854H26.1429C26 17.7854 25.7857 17.2854 25.5714 16.8568H19.2857C19.5 16.3568 19.7857 15.9282 20.0714 15.4282H24.8571C24.5714 14.9282 24.2143 14.4282 23.7857 13.9997H21.1429C21.5714 13.4997 22 13.0711 22.5 12.6425C20.1429 10.4282 16.9286 9.14252 13.4286 9.14252H13.3571" fill="#E52836"/>
<path d="M13.5003 35.9997C17.0003 35.9997 20.1431 34.6425 22.5717 32.4997C23.0717 32.0711 23.5003 31.5711 23.9288 31.0711H21.1431C20.786 30.6425 20.4289 30.1425 20.1431 29.7139H24.9289C25.2146 29.2854 25.5003 28.7854 25.7146 28.2854H19.3574C19.1431 27.8568 18.9288 27.3568 18.786 26.8568H26.2146C26.6431 25.4997 26.9288 24.0711 26.9288 22.5711C26.9288 21.5711 26.786 20.6425 26.6431 19.7139H18.3574C18.4289 19.2139 18.5717 18.7854 18.7146 18.2854H26.1431C26.0003 17.7854 25.786 17.2854 25.5717 16.8568H19.286C19.5003 16.3568 19.786 15.9282 20.0717 15.4282H24.8574C24.5717 14.9282 24.2146 14.4282 23.786 13.9997H21.1431C21.5717 13.4997 22.0003 13.0711 22.5003 12.6425C20.1431 10.4282 16.9288 9.14252 13.4288 9.14252H13.3574" fill="#CB2026"/>
<path d="M18.2863 25.9285L18.5006 24.7142C18.4291 24.7142 18.2863 24.7857 18.1434 24.7857C17.6434 24.7857 17.572 24.5 17.6434 24.3571L18.072 21.8571H18.8577L19.072 20.5H18.3577L18.5006 19.6428H17.072C17.072 19.6428 16.2148 24.3571 16.2148 24.9285C16.2148 25.7857 16.7148 26.1428 17.3577 26.1428C17.7863 26.1428 18.1434 26 18.2863 25.9285Z" fill="white"/>
<path d="M18.7861 23.6424C18.7861 25.6424 20.1433 26.1424 21.2861 26.1424C22.3576 26.1424 22.7861 25.9281 22.7861 25.9281L23.0718 24.571C23.0718 24.571 22.2861 24.9281 21.5718 24.9281C20.0004 24.9281 20.2861 23.7852 20.2861 23.7852H23.2147C23.2147 23.7852 23.429 22.8567 23.429 22.4995C23.429 21.571 22.929 20.4281 21.3576 20.4281C19.8576 20.2853 18.7861 21.8567 18.7861 23.6424ZM21.2861 21.571C22.0718 21.571 21.929 22.4995 21.929 22.571H20.3576C20.3576 22.4995 20.5004 21.571 21.2861 21.571Z" fill="white"/>
<path d="M30.3573 25.9279L30.643 24.3564C30.643 24.3564 29.9287 24.7136 29.4287 24.7136C28.4287 24.7136 28.0001 23.9278 28.0001 23.0707C28.0001 21.3564 28.8573 20.4278 29.8573 20.4278C30.5716 20.4278 31.143 20.8564 31.143 20.8564L31.3573 19.3564C31.3573 19.3564 30.5001 18.9993 29.7144 18.9993C28.0716 18.9993 26.4287 20.4278 26.4287 23.1421C26.4287 24.9279 27.2859 26.1421 29.0001 26.1421C29.5716 26.1421 30.3573 25.9279 30.3573 25.9279Z" fill="white"/>
<path d="M10.4291 20.2846C9.42913 20.2846 8.71484 20.5703 8.71484 20.5703L8.50056 21.7846C8.50056 21.7846 9.14341 21.4989 10.072 21.4989C10.572 21.4989 11.0006 21.5703 11.0006 21.9989C11.0006 22.2846 10.9291 22.356 10.9291 22.356C10.9291 22.356 10.5006 22.356 10.2863 22.356C9.07198 22.356 7.71484 22.856 7.71484 24.4989C7.71484 25.7846 8.57198 26.0703 9.07198 26.0703C10.072 26.0703 10.5006 25.4275 10.572 25.4275L10.5006 25.9989H11.7863L12.3577 22.0703C12.3577 20.356 10.9291 20.2846 10.4291 20.2846ZM10.7148 23.4989C10.7148 23.7132 10.572 24.856 9.71484 24.856C9.28627 24.856 9.14341 24.4989 9.14341 24.2846C9.14341 23.9275 9.3577 23.4275 10.4291 23.4275C10.6434 23.4989 10.7148 23.4989 10.7148 23.4989Z" fill="white"/>
<path d="M13.7151 26.0711C14.0723 26.0711 15.858 26.1425 15.858 24.2139C15.858 22.4282 14.1437 22.7854 14.1437 22.0711C14.1437 21.7139 14.4294 21.5711 14.9294 21.5711C15.1437 21.5711 15.9294 21.6425 15.9294 21.6425L16.1437 20.3568C16.1437 20.3568 15.6437 20.2139 14.7866 20.2139C13.7151 20.2139 12.6437 20.6425 12.6437 22.0711C12.6437 23.7139 14.4294 23.5711 14.4294 24.2139C14.4294 24.6425 13.9294 24.7139 13.5723 24.7139C12.9294 24.7139 12.2866 24.4996 12.2866 24.4996L12.0723 25.7854C12.1437 25.9282 12.5008 26.0711 13.7151 26.0711Z" fill="white"/>
<path d="M42.215 19.1425L41.9293 21.071C41.9293 21.071 41.3578 20.3567 40.5721 20.3567C39.2864 20.3567 38.1436 21.9282 38.1436 23.7853C38.1436 24.9282 38.715 26.1425 39.9293 26.1425C40.7864 26.1425 41.2864 25.571 41.2864 25.571L41.215 26.071H42.6436L43.715 19.2139L42.215 19.1425ZM41.5721 22.9282C41.5721 23.7139 41.215 24.7139 40.4293 24.7139C39.9293 24.7139 39.6436 24.2853 39.6436 23.571C39.6436 22.4282 40.1436 21.7139 40.7864 21.7139C41.2864 21.7139 41.5721 22.071 41.5721 22.9282Z" fill="white"/>
<path d="M2.64328 25.9996L3.50042 20.8567L3.64328 25.9996H4.64328L6.50042 20.8567L5.7147 25.9996H7.2147L8.35756 19.1425H6.00042L4.57185 23.3567L4.50042 19.1425H2.42899L1.28613 25.9996H2.64328Z" fill="white"/>
<path d="M24.7863 25.9993C25.2148 23.6421 25.2863 21.7136 26.2863 22.0707C26.4291 21.1421 26.6434 20.785 26.7863 20.4279C26.7863 20.4279 26.7148 20.4279 26.5006 20.4279C25.8577 20.4279 25.3577 21.285 25.3577 21.285L25.5006 20.4993H24.1434L23.2148 26.0707H24.7863V25.9993Z" fill="white"/>
<path d="M33.643 20.2846C32.643 20.2846 31.9287 20.5703 31.9287 20.5703L31.7144 21.7846C31.7144 21.7846 32.3573 21.4989 33.2859 21.4989C33.7859 21.4989 34.2144 21.5703 34.2144 21.9989C34.2144 22.2846 34.143 22.356 34.143 22.356C34.143 22.356 33.7144 22.356 33.5001 22.356C32.2859 22.356 30.9287 22.856 30.9287 24.4989C30.9287 25.7846 31.7859 26.0703 32.2859 26.0703C33.2859 26.0703 33.7144 25.4275 33.7859 25.4275L33.7144 25.9989H35.0001L35.5716 22.0703C35.643 20.356 34.143 20.2846 33.643 20.2846ZM34.0001 23.4989C34.0001 23.7132 33.8573 24.856 33.0001 24.856C32.5716 24.856 32.4287 24.4989 32.4287 24.2846C32.4287 23.9275 32.643 23.4275 33.7144 23.4275C33.9287 23.4989 33.9287 23.4989 34.0001 23.4989Z" fill="white"/>
<path d="M36.7863 25.9993C37.2148 23.6421 37.2863 21.7136 38.2863 22.0707C38.4291 21.1421 38.6434 20.785 38.7863 20.4279C38.7863 20.4279 38.7149 20.4279 38.5006 20.4279C37.8577 20.4279 37.3577 21.285 37.3577 21.285L37.5006 20.4993H36.1434L35.2148 26.0707H36.7863V25.9993Z" fill="white"/>
<path d="M16.0713 24.9285C16.0713 25.7857 16.5713 26.1428 17.2141 26.1428C17.7141 26.1428 18.1427 26 18.2856 25.9285L18.4999 24.7142C18.4284 24.7142 18.2856 24.7857 18.1427 24.7857C17.6427 24.7857 17.5713 24.5 17.6427 24.3571L18.0713 21.8571H18.857L19.0713 20.5H18.357L18.4999 19.6428" fill="#DCE5E5"/>
<path d="M19.5 23.6424C19.5 25.6424 20.1429 26.1424 21.2857 26.1424C22.3571 26.1424 22.7857 25.9281 22.7857 25.9281L23.0714 24.571C23.0714 24.571 22.2857 24.9281 21.5714 24.9281C20 24.9281 20.2857 23.7852 20.2857 23.7852H23.2143C23.2143 23.7852 23.4286 22.8567 23.4286 22.4995C23.4286 21.571 22.9286 20.4281 21.3571 20.4281C19.8571 20.2853 19.5 21.8567 19.5 23.6424ZM21.2857 21.571C22.0714 21.571 22.2143 22.4995 22.2143 22.571H20.3571C20.3571 22.4995 20.5 21.571 21.2857 21.571Z" fill="#DCE5E5"/>
<path d="M30.3578 25.9279L30.6436 24.3564C30.6436 24.3564 29.9293 24.7136 29.4293 24.7136C28.4293 24.7136 28.0007 23.9278 28.0007 23.0707C28.0007 21.3564 28.8578 20.4278 29.8578 20.4278C30.5721 20.4278 31.1436 20.8564 31.1436 20.8564L31.3578 19.3564C31.3578 19.3564 30.5007 18.9993 29.715 18.9993C28.0721 18.9993 27.1436 20.4278 27.1436 23.1421C27.1436 24.9279 27.2864 26.1421 29.0007 26.1421C29.5721 26.1421 30.3578 25.9279 30.3578 25.9279Z" fill="#DCE5E5"/>
<path d="M8.50056 21.8564C8.50056 21.8564 9.14341 21.5707 10.072 21.5707C10.572 21.5707 11.0006 21.6421 11.0006 22.0707C11.0006 22.3564 10.9291 22.4279 10.9291 22.4279C10.9291 22.4279 10.5006 22.4279 10.2863 22.4279C9.07198 22.4279 7.71484 22.9279 7.71484 24.5707C7.71484 25.8564 8.57198 26.1422 9.07198 26.1422C10.072 26.1422 10.5006 25.4993 10.572 25.4993L10.5006 26.0707H11.7863L12.3577 22.1421C12.3577 20.4993 10.9291 20.4279 10.3577 20.4279L8.50056 21.8564ZM11.4291 23.4993C11.4291 23.7136 10.572 24.8564 9.71484 24.8564C9.28627 24.8564 9.14341 24.4993 9.14341 24.285C9.14341 23.9279 9.3577 23.4279 10.4291 23.4279C10.6434 23.4993 11.4291 23.4993 11.4291 23.4993Z" fill="#DCE5E5"/>
<path d="M12.1436 25.9282C12.1436 25.9282 12.5721 26.0711 13.7864 26.0711C14.1436 26.0711 15.9293 26.1425 15.9293 24.2139C15.9293 22.4282 14.215 22.7854 14.215 22.0711C14.215 21.7139 14.5007 21.5711 15.0007 21.5711C15.215 21.5711 16.0007 21.6425 16.0007 21.6425L16.215 20.3568C16.215 20.3568 15.715 20.2139 14.8578 20.2139C13.7864 20.2139 13.4293 20.6425 13.4293 22.0711C13.4293 23.7139 14.5007 23.5711 14.5007 24.2139C14.5007 24.6425 14.0007 24.7139 13.6436 24.7139" fill="#DCE5E5"/>
<path d="M41.9292 21.0703C41.9292 21.0703 41.3577 20.3561 40.572 20.3561C39.2863 20.3561 38.8577 21.9275 38.8577 23.7846C38.8577 24.9275 38.7149 26.1418 39.9292 26.1418C40.7863 26.1418 41.2863 25.5704 41.2863 25.5704L41.2149 26.0704H42.6434L43.7149 19.2132L41.9292 21.0703ZM41.8577 22.9275C41.8577 23.7132 41.2149 24.7132 40.4291 24.7132C39.9291 24.7132 39.6434 24.2846 39.6434 23.5703C39.6434 22.4275 40.1434 21.7132 40.7863 21.7132C41.2863 21.7132 41.8577 22.0703 41.8577 22.9275Z" fill="#DCE5E5"/>
<path d="M2.64328 25.9996L3.50042 20.8567L3.64328 25.9996H4.64328L6.50042 20.8567L5.7147 25.9996H7.2147L8.35756 19.1425H6.57185L4.57185 23.3567L4.50042 19.1425H3.7147L1.28613 25.9996H2.64328Z" fill="#DCE5E5"/>
<path d="M23.2861 25.9993H24.7861C25.2147 23.6421 25.2861 21.7136 26.2861 22.0707C26.429 21.1421 26.6433 20.785 26.7861 20.4279C26.7861 20.4279 26.7147 20.4279 26.5004 20.4279C25.8576 20.4279 25.3576 21.285 25.3576 21.285L25.5004 20.4993" fill="#DCE5E5"/>
<path d="M31.7144 21.8564C31.7144 21.8564 32.3573 21.5707 33.2859 21.5707C33.7859 21.5707 34.2144 21.6421 34.2144 22.0707C34.2144 22.3564 34.143 22.4279 34.143 22.4279C34.143 22.4279 33.7144 22.4279 33.5001 22.4279C32.2859 22.4279 30.9287 22.9279 30.9287 24.5707C30.9287 25.8564 31.7859 26.1422 32.2859 26.1422C33.2859 26.1422 33.7144 25.4993 33.7859 25.4993L33.7144 26.0707H35.0001L35.5716 22.1421C35.5716 20.4993 34.143 20.4279 33.5716 20.4279L31.7144 21.8564ZM34.643 23.4993C34.643 23.7136 33.7859 24.8564 32.9287 24.8564C32.5001 24.8564 32.3573 24.4993 32.3573 24.285C32.3573 23.9279 32.5716 23.4279 33.643 23.4279C33.9287 23.4993 34.643 23.4993 34.643 23.4993Z" fill="#DCE5E5"/>
<path d="M35.2861 25.9993H36.7861C37.2147 23.6421 37.2861 21.7136 38.2861 22.0707C38.429 21.1421 38.6433 20.785 38.7861 20.4279C38.7861 20.4279 38.7147 20.4279 38.5004 20.4279C37.8576 20.4279 37.3576 21.285 37.3576 21.285L37.5004 20.4993" fill="#DCE5E5"/>
</svg>
