<svg width="36" height="37" viewBox="0 0 36 37" fill="none" xmlns="http://www.w3.org/2000/svg">
<mask id="mask0_3486_8105" style="mask-type:luminance" maskUnits="userSpaceOnUse" x="0" y="0" width="36" height="37">
<path d="M36 0H0V36.0843H36V0Z" fill="white"/>
</mask>
<g mask="url(#mask0_3486_8105)">
<path d="M8.77344 14.9644L10.2708 16.4468L13.0152 13.6901L10.8399 12.8892L8.77344 14.9653V14.9644Z" fill="#313131"/>
<path d="M35.2621 0.735252C34.4076 -0.116621 32.9305 -0.200052 30.9905 0.492863C29.6565 0.969737 28.2566 1.76892 27.5874 2.43724L25.867 4.15241H1.8125V9.56224L6.54172 11.3046L10.2048 7.63367L11.7004 9.11786L8.71794 12.1056L10.8406 12.8881L15.7314 7.9753L17.2288 9.45773L13.0151 13.689L15.4144 14.5725L12.6076 17.3714L6.60407 17.7631L3.24751 21.11L9.82275 24.6123L13.1898 21.2549L14.6819 22.7426L11.3122 26.1026L14.8277 32.655L18.1843 29.309L18.5768 23.3231L21.2984 20.6111L22.1802 22.9902L26.5054 18.6457L28.0028 20.1281L22.9855 25.1665L23.8119 27.3954L26.9112 24.29L28.4068 25.7742L24.6181 29.5707L26.335 34.2042H31.7616V10.1788L33.5566 8.38806C34.2258 7.72061 35.0285 6.32512 35.5063 4.99462C36.2018 3.06078 36.1175 1.588 35.263 0.735252H35.2621Z" fill="#313131"/>
</g>
<path d="M0 17.8597L1.49561 19.3439L8.71809 12.1065L6.54186 11.3047L0 17.8597Z" fill="#313131"/>
<path d="M7.88281 26.5461L9.37491 28.0338L11.3123 26.1026L9.8228 24.6123L7.88281 26.5461Z" fill="#313131"/>
<path d="M16.7079 34.5156L18.2035 35.9998L24.6189 29.5704L23.8127 27.395L16.707 34.5156H16.7079Z" fill="#313131"/>
<path d="M19.5478 25.6342L21.0451 27.1166L22.986 25.167L22.1798 22.9907L19.5469 25.635L19.5478 25.6342Z" fill="#313131"/>
</svg>
