<svg width="40" height="41" viewBox="0 0 40 41" fill="none" xmlns="http://www.w3.org/2000/svg">
<g clip-path="url(#clip0_3486_8596)">
<path d="M31.5006 22.9141C26.8139 22.9141 23.0156 26.7134 23.0156 31.4C23.0156 36.0867 26.8139 39.886 31.5006 39.886C36.1872 39.886 39.9865 36.0867 39.9865 31.4C39.9865 26.7134 36.1872 22.9141 31.5006 22.9141ZM34.6039 32.7364L32.9483 34.392L31.526 32.9697L30.1037 34.392L28.4491 32.7364L29.8713 31.3141L28.4491 29.8918L30.1037 28.2362L31.526 29.6585L32.9483 28.2362L34.6039 29.8918L33.1816 31.3141L34.6039 32.7364Z" fill="#313131"/>
<path d="M30.9429 9.64079L38.7211 6.80303L19.9843 0.0546875L12.3594 2.80166L30.9703 9.56562L30.9429 9.64176V9.64079Z" fill="#313131"/>
<path d="M8.91604 4.04102L1.49219 6.71478L19.9898 13.6369L27.6392 10.846L8.91604 4.04102Z" fill="#313131"/>
<path d="M21.1562 28.4591C22.439 23.9365 26.6043 20.6145 31.5321 20.6145C34.9448 20.6145 37.9915 22.2086 39.9692 24.6901V8.84082L21.1562 15.7044V28.4601V28.4591Z" fill="#313131"/>
<mask id="mask0_3486_8596" style="mask-type:luminance" maskUnits="userSpaceOnUse" x="0" y="0" width="40" height="41">
<path d="M40 0H0.078125V40.0156H40V0Z" fill="white"/>
</mask>
<g mask="url(#mask0_3486_8596)">
<path d="M21.1562 39.25L23.381 38.4486C22.3618 37.2713 21.5926 35.8724 21.1562 34.335V39.2491V39.25Z" fill="#313131"/>
<path d="M0 32.4741L18.8139 39.2498V15.6984L0 8.65723V32.4741Z" fill="#313131"/>
</g>
</g>
<defs>
<clipPath id="clip0_3486_8596">
<rect width="40" height="40.0156" fill="white"/>
</clipPath>
</defs>
</svg>
