<svg width="36" height="37" viewBox="0 0 36 37" fill="none" xmlns="http://www.w3.org/2000/svg">
<mask id="mask0_3486_8129" style="mask-type:luminance" maskUnits="userSpaceOnUse" x="0" y="0" width="36" height="37">
<path d="M36 0H0V36.0843H36V0Z" fill="white"/>
</mask>
<g mask="url(#mask0_3486_8129)">
<path d="M21.1579 16.9106H14.7539V35.9996H21.1579V16.9106Z" fill="#313131"/>
<path d="M12.6464 7.94767H14.7541V14.8031H21.1581V7.94767H23.2658V14.8031H35.9719V7.78608H25.1698C26.3159 7.3619 26.7655 7.10106 27.0061 6.92191C27.8282 6.31418 28.3639 5.42279 28.514 4.41283C28.6642 3.40288 28.4122 2.39468 27.8036 1.57443C26.5477 -0.118783 24.1467 -0.476219 22.4517 0.777879C22.0583 1.06945 21.2907 1.82384 19.1917 4.99158C18.7509 5.65639 18.332 6.30715 17.9851 6.85341C17.6382 6.30803 17.2193 5.65727 16.7784 4.99158C14.6786 1.82296 13.9119 1.06945 13.5176 0.777879C11.8226 -0.476219 9.42155 -0.118783 8.16657 1.57443C7.55796 2.39468 7.30591 3.40288 7.45609 4.41283C7.60626 5.42279 8.14198 6.31418 8.96399 6.92191C9.20463 7.10019 9.65427 7.3619 10.8004 7.78608H0V14.8031H12.6464V7.94767Z" fill="#313131"/>
</g>
<path d="M33.8587 16.9111H23.2656V36.0001H33.8587V16.9111Z" fill="#313131"/>
<path d="M12.648 16.9111H2.10938V36.0001H12.648V16.9111Z" fill="#313131"/>
</svg>
