<svg width="24" height="24" viewBox="0 0 24 24" fill="none" xmlns="http://www.w3.org/2000/svg">
<g clip-path="url(#clip0_3549_7619)">
<path d="M23.9954 5.92004C23.9674 5.66176 23.807 5.43324 23.5672 5.32131L12.3172 0.0713066C12.1161 -0.0224902 11.8839 -0.0224434 11.6828 0.0713066L0.432844 5.32131C0.193125 5.4332 0.0327187 5.66162 0.00464062 5.91981C0.00403125 5.9252 0 5.99701 0 6.00095V18.7509C0 19.0576 0.186703 19.3334 0.471469 19.4473L11.7215 23.9473C11.8109 23.983 11.9055 24.0009 12 24.0009C12.0945 24.0009 12.1891 23.9831 12.2785 23.9473L15.3269 22.7282C16.2467 23.521 17.4433 24.0009 18.75 24.0009C21.6449 24.0009 24 21.6458 24 18.7509V6.00095C24 5.9972 23.9959 5.9252 23.9954 5.92004ZM12 1.57857L21.363 5.94798L17.7577 7.39009L8.21845 3.34328L12 1.57857ZM11.25 22.1432L1.5 18.2432V7.1087L11.25 11.0087V22.1432ZM12 9.69315L2.637 5.94798L6.38948 4.19682L15.7807 8.18087L12 9.69315ZM18.75 22.5009C16.6823 22.5009 15 20.8187 15 18.7509C15 16.6832 16.6823 15.0009 18.75 15.0009C20.8177 15.0009 22.5 16.6832 22.5 18.7509C22.5 20.8187 20.8177 22.5009 18.75 22.5009ZM18.75 13.5009C15.8551 13.5009 13.5 15.8561 13.5 18.7509C13.5 19.7689 13.7915 20.7198 14.295 21.5254L12.75 22.1432V11.0087L22.5 7.1087V15.0807C21.5464 14.1066 20.2177 13.5009 18.75 13.5009Z" fill="black"/>
<path d="M19.8107 18.75L20.4053 18.1554C20.6982 17.8625 20.6982 17.3876 20.4053 17.0947C20.1125 16.8018 19.6376 16.8018 19.3447 17.0947L18.75 17.6894L18.1553 17.0947C17.8625 16.8018 17.3876 16.8018 17.0947 17.0947C16.8018 17.3876 16.8018 17.8624 17.0947 18.1553L17.6894 18.75L17.0947 19.3447C16.8018 19.6376 16.8018 20.1125 17.0947 20.4054C17.2412 20.5518 17.4331 20.625 17.625 20.625C17.817 20.625 18.0089 20.5518 18.1553 20.4054L18.75 19.8107L19.3447 20.4054C19.4912 20.5518 19.6831 20.625 19.875 20.625C20.067 20.625 20.2589 20.5518 20.4053 20.4054C20.6982 20.1125 20.6982 19.6376 20.4053 19.3447L19.8107 18.75Z" fill="black"/>
</g>
<defs>
<clipPath id="clip0_3549_7619">
<rect width="24" height="24" fill="white"/>
</clipPath>
</defs>
</svg>
