<svg width="48" height="25" viewBox="0 0 48 25" fill="none" xmlns="http://www.w3.org/2000/svg">
<g clip-path="url(#clip0_3486_8085)">
<path d="M34.9688 20.7962H37.3313C37.7461 22.8716 39.5813 24.4407 41.7738 24.4407C43.9664 24.4407 45.8016 22.8716 46.2164 20.7962H48V12.1841H34.9688V20.7962Z" fill="#313131"/>
<path d="M47.0895 9.24727L38.0379 0H34.9688V9.24727H47.0895Z" fill="#313131"/>
<path d="M7.76953 0.000976562V5.49473H19.098V8.30723H7.76953V11.1197H13.4801V13.9322H7.76953V20.7947H11.4023C11.8184 22.8701 13.6512 24.4393 15.8449 24.4393C18.0387 24.4393 19.8727 22.8701 20.2875 20.7947H32.1551V0.000976562H7.76953Z" fill="#313131"/>
<path d="M7.76953 5.49512H0V8.30762H7.76953V5.49512Z" fill="#313131"/>
<path d="M7.76953 11.1211H0V13.9336H7.76953V11.1211Z" fill="#313131"/>
<path d="M4.68516 16.7461H0V19.5586H4.68516V16.7461Z" fill="#313131"/>
</g>
<defs>
<clipPath id="clip0_3486_8085">
<rect width="48" height="24.4406" fill="white"/>
</clipPath>
</defs>
</svg>
