<svg width="36" height="36" viewBox="0 0 36 36" fill="none" xmlns="http://www.w3.org/2000/svg">
<g clip-path="url(#clip0_3484_7572)">
<path d="M27.8716 8.63437L34.8773 6.07851L18.0006 0L11.1328 2.47324L27.8962 8.56582L27.8716 8.63437Z" fill="#313131"/>
<path d="M8.03047 3.59033L1.34375 5.99854L18.0043 12.2326L24.894 9.71895L8.03047 3.59033Z" fill="#313131"/>
<path d="M19.0547 25.584C20.2096 21.5103 23.9616 18.5176 28.4001 18.5176C31.4736 18.5176 34.2185 19.9537 35.9991 22.1896V7.91357L19.0547 14.0958V25.584Z" fill="#313131"/>
<path d="M19.0547 35.303L21.0586 34.5814C20.1401 33.5215 19.4476 32.2611 19.0547 30.876V35.303Z" fill="#313131"/>
<path d="M0 29.2L16.9453 35.304V14.089L0 7.74854V29.2Z" fill="#313131"/>
<path d="M28.3578 20.5557C24.1364 20.5557 20.7148 23.9772 20.7148 28.1986C20.7148 32.42 24.1364 35.8416 28.3578 35.8416C32.5792 35.8416 36.0008 32.42 36.0008 28.1986C36.0008 23.9772 32.5792 20.5557 28.3578 20.5557ZM28.4721 31.4761L25.4214 28.4254L26.9129 26.9339L27.9553 27.9763L29.4775 25.1356L31.3364 26.1323L28.473 31.477L28.4721 31.4761Z" fill="#313131"/>
</g>
<defs>
<clipPath id="clip0_3484_7572">
<rect width="36" height="35.8418" fill="white"/>
</clipPath>
</defs>
</svg>
