<svg width="24" height="24" viewBox="0 0 24 24" fill="none" xmlns="http://www.w3.org/2000/svg">
<g clip-path="url(#clip0_188_68)">
<path d="M23.9954 5.91967C23.9674 5.66139 23.807 5.43288 23.5672 5.32094L12.3172 0.0709404C12.1161 -0.0228564 11.8839 -0.0228096 11.6828 0.0709404L0.432844 5.32094C0.193125 5.43283 0.0327187 5.66125 0.00464062 5.91944C0.00403125 5.92483 0 5.99664 0 6.00058V18.7506C0 19.0572 0.186703 19.3331 0.471469 19.4469L11.7215 23.9469C11.8109 23.9827 11.9055 24.0006 12 24.0006C12.0945 24.0006 12.1891 23.9827 12.2785 23.947L15.3269 22.7279C16.2467 23.5206 17.4433 24.0006 18.75 24.0006C21.6449 24.0006 24 21.6454 24 18.7506V6.00058C24 5.99683 23.9959 5.92483 23.9954 5.91967ZM12 1.57821L21.363 5.94761L17.7577 7.38972L8.21845 3.34291L12 1.57821ZM11.25 22.1428L1.5 18.2428V7.10833L11.25 11.0083V22.1428ZM12 9.69278L2.637 5.94761L6.38948 4.19646L15.7807 8.1805L12 9.69278ZM18.75 22.5006C16.6823 22.5006 15 20.8183 15 18.7506C15 16.6828 16.6823 15.0006 18.75 15.0006C20.8177 15.0006 22.5 16.6828 22.5 18.7506C22.5 20.8183 20.8177 22.5006 18.75 22.5006ZM18.75 13.5006C15.8551 13.5006 13.5 15.8557 13.5 18.7506C13.5 19.7685 13.7915 20.7195 14.295 21.525L12.75 22.1429V11.0083L22.5 7.10833V15.0804C21.5464 14.1062 20.2177 13.5006 18.75 13.5006Z" fill="black"/>
<path d="M19.8107 18.75L20.4053 18.1554C20.6982 17.8625 20.6982 17.3876 20.4053 17.0947C20.1125 16.8018 19.6376 16.8018 19.3447 17.0947L18.75 17.6894L18.1553 17.0947C17.8625 16.8018 17.3876 16.8018 17.0947 17.0947C16.8018 17.3876 16.8018 17.8624 17.0947 18.1553L17.6894 18.75L17.0947 19.3447C16.8018 19.6376 16.8018 20.1125 17.0947 20.4054C17.2412 20.5518 17.4331 20.625 17.625 20.625C17.817 20.625 18.0089 20.5518 18.1553 20.4054L18.75 19.8107L19.3447 20.4054C19.4912 20.5518 19.6831 20.625 19.875 20.625C20.067 20.625 20.2589 20.5518 20.4053 20.4054C20.6982 20.1125 20.6982 19.6376 20.4053 19.3447L19.8107 18.75Z" fill="black"/>
</g>
<defs>
<clipPath id="clip0_188_68">
<rect width="24" height="24" fill="white"/>
</clipPath>
</defs>
</svg>
