<svg width="45" height="45" viewBox="0 0 45 45" fill="none" xmlns="http://www.w3.org/2000/svg">
<g clip-path="url(#clip0_154_81)">
<path d="M34.7857 19.7507H32.3571C32.2143 19.7507 32.0714 19.8936 32 20.0364L31 26.3221C31 26.465 31.0714 26.5364 31.2143 26.5364H32.5C32.6429 26.5364 32.7143 26.465 32.7143 26.3221L33 24.5364C33 24.3936 33.1429 24.2507 33.3571 24.2507H34.1429C35.7857 24.2507 36.7143 23.465 36.9286 21.8936C37.0714 21.2507 36.9286 20.6793 36.6429 20.3222C36.2143 19.965 35.5714 19.7507 34.7857 19.7507ZM35.0714 22.1079C34.9286 22.965 34.2857 22.965 33.6429 22.965H33.2143L33.5 21.3222C33.5 21.2507 33.5714 21.1793 33.7143 21.1793H33.8571C34.2857 21.1793 34.7143 21.1793 34.9286 21.465C35.0714 21.5364 35.0714 21.7507 35.0714 22.1079Z" fill="#139AD6"/>
<path d="M17.2857 19.7507H14.8571C14.7143 19.7507 14.5714 19.8936 14.5 20.0364L13.5 26.3221C13.5 26.465 13.5714 26.5364 13.7143 26.5364H14.8571C15 26.5364 15.1429 26.3936 15.2143 26.2507L15.5 24.5364C15.5 24.3936 15.6429 24.2507 15.8571 24.2507H16.6429C18.2857 24.2507 19.2143 23.465 19.4286 21.8936C19.5714 21.2507 19.4286 20.6793 19.1429 20.3222C18.7143 19.965 18.1429 19.7507 17.2857 19.7507ZM17.5714 22.1079C17.4286 22.965 16.7857 22.965 16.1429 22.965H15.7857L16.0714 21.3222C16.0714 21.2507 16.1429 21.1793 16.2857 21.1793H16.4286C16.8571 21.1793 17.2857 21.1793 17.5 21.465C17.5714 21.5364 17.6429 21.7507 17.5714 22.1079Z" fill="#263B80"/>
<path d="M24.6434 22.0365H23.5005C23.4291 22.0365 23.2862 22.1079 23.2862 22.1793L23.2148 22.5365L23.1434 22.3936C22.8577 22.0365 22.3577 21.8936 21.7862 21.8936C20.5005 21.8936 19.3577 22.8936 19.1434 24.2508C19.0005 24.965 19.2148 25.6079 19.5719 26.0365C19.9291 26.465 20.4291 26.6079 21.0719 26.6079C22.1434 26.6079 22.7148 25.965 22.7148 25.965L22.6434 26.3222C22.6434 26.465 22.7148 26.5365 22.8577 26.5365H23.9291C24.0719 26.5365 24.2148 26.3936 24.2862 26.2507L24.9291 22.2508C24.8576 22.1793 24.7148 22.0365 24.6434 22.0365ZM23.0005 24.3222C22.8577 24.965 22.3577 25.465 21.6434 25.465C21.2862 25.465 21.0005 25.3222 20.8577 25.1793C20.7148 24.965 20.6434 24.6793 20.6434 24.3222C20.7148 23.6793 21.2862 23.1793 21.9291 23.1793C22.2862 23.1793 22.5005 23.3222 22.7148 23.465C22.9291 23.6793 23.0005 24.0365 23.0005 24.3222Z" fill="#263B80"/>
<path d="M42.0711 22.0364H40.9282C40.8568 22.0364 40.714 22.1078 40.714 22.1793L40.6425 22.5364L40.5711 22.3936C40.2854 22.0364 39.7854 21.8936 39.214 21.8936C37.9283 21.8936 36.7854 22.8936 36.5711 24.2507C36.4283 24.965 36.6425 25.6078 36.9997 26.0364C37.3568 26.465 37.8568 26.6078 38.4997 26.6078C39.5711 26.6078 40.1425 25.965 40.1425 25.965L40.0711 26.3221C40.0711 26.465 40.1425 26.5364 40.2854 26.5364H41.3568C41.4997 26.5364 41.6425 26.3935 41.714 26.2507L42.3568 22.2507C42.2854 22.1793 42.214 22.0364 42.0711 22.0364ZM40.4282 24.3221C40.2854 24.965 39.7854 25.465 39.0711 25.465C38.714 25.465 38.4283 25.3221 38.2854 25.1793C38.1425 24.965 38.0711 24.6793 38.0711 24.3221C38.1425 23.6793 38.714 23.1793 39.3568 23.1793C39.714 23.1793 39.9282 23.3221 40.1425 23.465C40.4282 23.6793 40.4997 24.0364 40.4282 24.3221Z" fill="#139AD6"/>
<path d="M30.8574 22.035H29.6431C29.5003 22.035 29.4289 22.1065 29.3574 22.1779L27.786 24.6065L27.0717 22.3207C27.0003 22.1779 26.9289 22.1065 26.7146 22.1065H25.5717C25.4289 22.1065 25.3574 22.2493 25.3574 22.3922L26.6431 26.1779L25.4288 27.8922C25.3574 28.035 25.4289 28.2493 25.5717 28.2493H26.7146C26.8574 28.2493 26.9289 28.1779 27.0003 28.1065L30.9289 22.4636C31.1432 22.2493 31.0003 22.035 30.8574 22.035Z" fill="#263B80"/>
<path d="M43.4287 19.9648L42.4287 26.3934C42.4287 26.5363 42.5001 26.6077 42.643 26.6077H43.643C43.7859 26.6077 43.9287 26.4648 44.0001 26.322L45.0001 20.0363C45.0001 19.8934 44.9287 19.822 44.7859 19.822H43.643C43.5716 19.7505 43.5001 19.822 43.4287 19.9648Z" fill="#139AD6"/>
<path d="M8.21429 17.6075C7.71429 17.0361 6.78571 16.7504 5.5 16.7504H1.92857C1.71429 16.7504 1.5 16.9647 1.42857 17.1789L0 26.5361C0 26.7504 0.142857 26.8932 0.285714 26.8932H2.5L3.07143 23.3932V23.5361C3.14286 23.3218 3.35714 23.1075 3.57143 23.1075H4.64286C6.71429 23.1075 8.28572 22.2504 8.78572 19.8932C8.78572 19.8218 8.78572 19.7504 8.78572 19.6789C8.71429 19.6789 8.71429 19.6789 8.78572 19.6789C8.85714 18.7504 8.71429 18.1789 8.21429 17.6075Z" fill="#263B80"/>
<path d="M8.71373 19.6782C8.71373 19.7497 8.71373 19.8211 8.71373 19.8925C8.21373 22.3211 6.6423 23.1068 4.57087 23.1068H3.49944C3.28516 23.1068 3.07087 23.3211 2.99944 23.5354L2.28516 27.8925C2.28516 28.0354 2.35658 28.1782 2.57087 28.1782H4.42801C4.6423 28.1782 4.85659 28.0354 4.85659 27.8211V27.7497L5.21373 25.5354V25.3925C5.21373 25.1782 5.42801 25.0354 5.6423 25.0354H5.92801C7.71373 25.0354 9.1423 24.3211 9.49944 22.1782C9.6423 21.3211 9.57087 20.5354 9.1423 20.0354C9.07087 19.8925 8.92801 19.7497 8.71373 19.6782Z" fill="#139AD6"/>
<path d="M8.21415 19.4647C8.14272 19.4647 8.07129 19.3932 7.99986 19.3932C7.92843 19.3932 7.857 19.3932 7.78557 19.3218C7.49986 19.2504 7.21415 19.2504 6.857 19.2504H4.07129C3.99986 19.2504 3.92843 19.2504 3.857 19.3218C3.71415 19.3932 3.64272 19.5361 3.64272 19.6789L3.07129 23.3932V23.5361C3.14272 23.3218 3.357 23.1075 3.57129 23.1075H4.64272C6.71415 23.1075 8.28557 22.2504 8.78557 19.8932C8.78557 19.8218 8.78557 19.7504 8.857 19.6789C8.71415 19.6075 8.64272 19.5361 8.49986 19.5361C8.28557 19.4647 8.28557 19.4647 8.21415 19.4647Z" fill="#232C65"/>
</g>
<defs>
<clipPath id="clip0_154_81">
<rect width="45" height="45" fill="white"/>
</clipPath>
</defs>
</svg>
