<svg width="20" height="20" viewBox="0 0 20 20" fill="none" xmlns="http://www.w3.org/2000/svg">
<g clip-path="url(#clip0_3091_6910)">
<path d="M17.6562 6.88135C17.625 6.80322 17.5922 6.7251 17.5586 6.64697C17.0545 5.4845 16.2388 4.48408 15.2016 3.75635H16.875C17.0408 3.75635 17.1997 3.6905 17.3169 3.57329C17.4342 3.45608 17.5 3.29711 17.5 3.13135C17.5 2.96559 17.4342 2.80662 17.3169 2.68941C17.1997 2.5722 17.0408 2.50635 16.875 2.50635H8.75C7.02195 2.50854 5.35792 3.16053 4.08835 4.33285C2.81877 5.50517 2.0365 7.11207 1.89688 8.83447C1.357 8.96868 0.877312 9.27911 0.533741 9.71664C0.190169 10.1542 0.00234494 10.6938 0 11.2501C0 11.4159 0.065848 11.5748 0.183058 11.692C0.300269 11.8092 0.45924 11.8751 0.625 11.8751C0.79076 11.8751 0.949732 11.8092 1.06694 11.692C1.18415 11.5748 1.25 11.4159 1.25 11.2501C1.25015 11.0222 1.3126 10.7987 1.43061 10.6037C1.54861 10.4087 1.71768 10.2497 1.91953 10.1438C2.0751 11.5461 2.6598 12.8661 3.59375 13.9235L4.575 16.6704C4.66175 16.9134 4.82155 17.1235 5.03248 17.2721C5.24341 17.4206 5.49514 17.5003 5.75313 17.5001H6.74687C7.00473 17.5001 7.25628 17.4204 7.46706 17.2719C7.67783 17.1233 7.83752 16.9132 7.92422 16.6704L8.07422 16.2501H12.5508L12.7008 16.6704C12.7875 16.9132 12.9472 17.1233 13.1579 17.2719C13.3687 17.4204 13.6203 17.5001 13.8781 17.5001H14.8719C15.1297 17.5001 15.3813 17.4204 15.5921 17.2719C15.8028 17.1233 15.9625 16.9132 16.0492 16.6704L17.3156 13.1251H17.5C17.9973 13.1251 18.4742 12.9276 18.8258 12.5759C19.1775 12.2243 19.375 11.7474 19.375 11.2501V8.7501C19.3751 8.27982 19.1984 7.82668 18.8801 7.48054C18.5617 7.13441 18.1249 6.92054 17.6562 6.88135ZM11.875 5.6251H8.75C8.58424 5.6251 8.42527 5.55925 8.30806 5.44204C8.19085 5.32483 8.125 5.16586 8.125 5.0001C8.125 4.83434 8.19085 4.67537 8.30806 4.55816C8.42527 4.44095 8.58424 4.3751 8.75 4.3751H11.875C12.0408 4.3751 12.1997 4.44095 12.3169 4.55816C12.4342 4.67537 12.5 4.83434 12.5 5.0001C12.5 5.16586 12.4342 5.32483 12.3169 5.44204C12.1997 5.55925 12.0408 5.6251 11.875 5.6251ZM14.0625 10.0001C13.8771 10.0001 13.6958 9.94511 13.5417 9.8421C13.3875 9.73909 13.2673 9.59267 13.1964 9.42136C13.1254 9.25006 13.1068 9.06156 13.143 8.8797C13.1792 8.69784 13.2685 8.5308 13.3996 8.39968C13.5307 8.26857 13.6977 8.17928 13.8796 8.14311C14.0615 8.10694 14.25 8.1255 14.4213 8.19646C14.5926 8.26742 14.739 8.38758 14.842 8.54175C14.945 8.69592 15 8.87718 15 9.0626C15 9.31124 14.9012 9.54969 14.7254 9.72551C14.5496 9.90132 14.3111 10.0001 14.0625 10.0001Z" fill="#898989"/>
</g>
<defs>
<clipPath id="clip0_3091_6910">
<rect width="20" height="20" fill="white"/>
</clipPath>
</defs>
</svg>
