<svg width="24" height="24" viewBox="0 0 24 24" fill="none" xmlns="http://www.w3.org/2000/svg">
<g clip-path="url(#clip0_3549_7623)">
<path d="M21.75 20.25H20.25V9.75C20.25 9.33581 19.9142 9 19.5 9H15.375H11.625H8.25V3.375C8.25 2.47397 7.89905 1.62647 7.26131 0.988172C6.62348 0.350953 5.77598 0 4.875 0C3.01402 0 1.5 1.51402 1.5 3.375C1.5 3.78919 1.83577 4.125 2.25 4.125C2.66423 4.125 3 3.78919 3 3.375C3 2.34113 3.84113 1.5 4.875 1.5C5.37563 1.5 5.84658 1.69509 6.20062 2.04881C6.55491 2.40337 6.75 2.87437 6.75 3.375V9.75V18.0949C5.45752 18.4288 4.5 19.6047 4.5 21C4.5 22.6542 5.84578 24 7.5 24C8.89533 24 10.0712 23.0425 10.4051 21.75H19.5H21.75C22.1642 21.75 22.5 21.4142 22.5 21C22.5 20.5858 22.1642 20.25 21.75 20.25ZM14.625 10.5V12H12.375V10.5H14.625ZM7.5 22.5C6.67289 22.5 6 21.8271 6 21C6 20.1729 6.67289 19.5 7.5 19.5C8.32711 19.5 9 20.1729 9 21C9 21.8271 8.32711 22.5 7.5 22.5ZM10.4051 20.25C10.1332 19.1973 9.30267 18.3668 8.25 18.0949V10.5H10.875V12.75C10.875 13.1642 11.2108 13.5 11.625 13.5H15.375C15.7892 13.5 16.125 13.1642 16.125 12.75V10.5H18.75V20.25H10.4051Z" fill="black"/>
</g>
<defs>
<clipPath id="clip0_3549_7623">
<rect width="24" height="24" fill="white"/>
</clipPath>
</defs>
</svg>
