<svg width="24" height="24" viewBox="0 0 24 24" fill="none" xmlns="http://www.w3.org/2000/svg">
<g clip-path="url(#clip0_1997_2391)">
<path d="M9.97192 3.75H5.47192C4.6435 3.75 3.97192 4.42157 3.97192 5.25V9.75C3.97192 10.5784 4.6435 11.25 5.47192 11.25H9.97192C10.8004 11.25 11.4719 10.5784 11.4719 9.75V5.25C11.4719 4.42157 10.8004 3.75 9.97192 3.75Z" fill="#333333"/>
<path d="M9.97192 13H5.47192C4.6435 13 3.97192 13.6716 3.97192 14.5V19C3.97192 19.8284 4.6435 20.5 5.47192 20.5H9.97192C10.8004 20.5 11.4719 19.8284 11.4719 19V14.5C11.4719 13.6716 10.8004 13 9.97192 13Z" fill="#333333"/>
<path d="M17.9719 3.75H13.4719C12.6435 3.75 11.9719 4.42157 11.9719 5.25V9.75C11.9719 10.5784 12.6435 11.25 13.4719 11.25H17.9719C18.8004 11.25 19.4719 10.5784 19.4719 9.75V5.25C19.4719 4.42157 18.8004 3.75 17.9719 3.75Z" fill="#333333"/>
<path d="M20.7219 8.5C20.9208 8.5 21.1116 8.42098 21.2523 8.28033C21.3929 8.13968 21.4719 7.94891 21.4719 7.75V4.75C21.4719 4.55109 21.3929 4.36032 21.2523 4.21967C21.1116 4.07902 20.9208 4 20.7219 4C20.523 4 20.3322 4.07902 20.1916 4.21967C20.0509 4.36032 19.9719 4.55109 19.9719 4.75V7.75C19.9719 7.94891 20.0509 8.13968 20.1916 8.28033C20.3322 8.42098 20.523 8.5 20.7219 8.5Z" fill="#333333"/>
<path d="M18.7219 14.5H16.4719V13.75C16.4719 13.5511 16.3929 13.3603 16.2523 13.2197C16.1116 13.079 15.9208 13 15.7219 13C15.523 13 15.3322 13.079 15.1916 13.2197C15.0509 13.3603 14.9719 13.5511 14.9719 13.75V19H12.7219C12.523 19 12.3322 19.079 12.1916 19.2197C12.0509 19.3603 11.9719 19.5511 11.9719 19.75C11.9719 19.9489 12.0509 20.1397 12.1916 20.2803C12.3322 20.421 12.523 20.5 12.7219 20.5H15.7219C15.9208 20.5 16.1116 20.421 16.2523 20.2803C16.3929 20.1397 16.4719 19.9489 16.4719 19.75V16H18.7219C18.9208 16 19.1116 15.921 19.2523 15.7803C19.3929 15.6397 19.4719 15.4489 19.4719 15.25C19.4719 15.0511 19.3929 14.8603 19.2523 14.7197C19.1116 14.579 18.9208 14.5 18.7219 14.5Z" fill="#333333"/>
<path d="M15.7219 23C15.523 23 15.3322 23.079 15.1916 23.2197C15.0509 23.3603 14.9719 23.5511 14.9719 23.75V25.25C14.9719 25.4489 15.0509 25.6397 15.1916 25.7803C15.3322 25.921 15.523 26 15.7219 26C15.9208 26 16.1116 25.921 16.2523 25.7803C16.3929 25.6397 16.4719 25.4489 16.4719 25.25V23.75C16.4719 23.5511 16.3929 23.3603 16.2523 23.2197C16.1116 23.079 15.9208 23 15.7219 23Z" fill="#333333"/>
</g>
<defs>
<clipPath id="clip0_1997_2391">
<rect width="24" height="24" fill="white"/>
</clipPath>
</defs>
</svg>
