<svg width="18" height="18" viewBox="0 0 18 18" fill="none" xmlns="http://www.w3.org/2000/svg">
<path d="M13.0098 11.5098H12.2198L11.9398 11.2398C12.9198 10.0998 13.5098 8.61977 13.5098 7.00977C13.5098 3.41977 10.5998 0.509766 7.00977 0.509766C3.41977 0.509766 0.509766 3.41977 0.509766 7.00977C0.509766 10.5998 3.41977 13.5098 7.00977 13.5098C8.61977 13.5098 10.0998 12.9198 11.2398 11.9398L11.5098 12.2198V13.0098L16.5098 17.9998L17.9998 16.5098L13.0098 11.5098ZM7.00977 11.5098C4.51977 11.5098 2.50977 9.49977 2.50977 7.00977C2.50977 4.51977 4.51977 2.50977 7.00977 2.50977C9.49977 2.50977 11.5098 4.51977 11.5098 7.00977C11.5098 9.49977 9.49977 11.5098 7.00977 11.5098Z" fill="#585757"/>
</svg>
