<svg width="24" height="24" viewBox="0 0 24 24" fill="none" xmlns="http://www.w3.org/2000/svg">
<g clip-path="url(#clip0_3549_7612)">
<path d="M23.5 24C23.224 24 23 23.776 23 23.5V21.5C23 18.468 20.532 16 17.5 16H15.5C15.224 16 15 15.776 15 15.5C15 15.224 15.224 15 15.5 15H17.5C21.084 15 24 17.916 24 21.5V23.5C24 23.776 23.776 24 23.5 24Z" fill="black"/>
<path d="M19 19.0001C18.885 19.0001 18.769 18.9611 18.675 18.8801L15.175 15.8801C15.063 15.7841 15 15.6461 15 15.5001C15 15.3541 15.063 15.2161 15.175 15.1201L18.675 12.1201C18.884 11.9421 19.198 11.9661 19.38 12.1751C19.56 12.3841 19.535 12.7001 19.325 12.8801L16.268 15.5001L19.325 18.1201C19.535 18.3001 19.559 18.6161 19.38 18.8251C19.28 18.9401 19.141 19.0001 19 19.0001Z" fill="black"/>
<path d="M16.5 20H2.5C1.673 20 1 19.327 1 18.5V7.5C1 7.224 1.224 7 1.5 7H18.5C18.776 7 19 7.224 19 7.5V10.56C19 10.836 18.776 11.06 18.5 11.06C18.224 11.06 18 10.836 18 10.56V8H2V18.5C2 18.775 2.225 19 2.5 19H16.5C16.776 19 17 19.224 17 19.5C17 19.776 16.776 20 16.5 20Z" fill="black"/>
<path d="M12.5 11H7.5C7.224 11 7 10.776 7 10.5C7 10.224 7.224 10 7.5 10H12.5C12.776 10 13 10.224 13 10.5C13 10.776 12.776 11 12.5 11Z" fill="black"/>
<path d="M19.5 8H0.5C0.224 8 0 7.776 0 7.5V3.5C0 3.224 0.224 3 0.5 3H19.5C19.776 3 20 3.224 20 3.5V7.5C20 7.776 19.776 8 19.5 8ZM1 7H19V4H1V7Z" fill="black"/>
<path d="M19.5012 4C19.3732 4 19.2452 3.951 19.1472 3.854L16.2942 1H3.7082L0.855203 3.854C0.660203 4.049 0.343203 4.049 0.148203 3.854C-0.0467969 3.659 -0.0467969 3.342 0.148203 3.147L3.1482 0.147C3.2412 0.053 3.3682 0 3.5012 0H16.5012C16.6342 0 16.7612 0.053 16.8552 0.146L19.8552 3.146C20.0502 3.341 20.0502 3.658 19.8552 3.853C19.7572 3.951 19.6292 4 19.5012 4Z" fill="black"/>
</g>
<defs>
<clipPath id="clip0_3549_7612">
<rect width="24" height="24" fill="white"/>
</clipPath>
</defs>
</svg>
