<svg width="21" height="20" viewBox="0 0 21 20" fill="none" xmlns="http://www.w3.org/2000/svg">
<path d="M18.5834 5H14.8334C14.8334 3.80653 14.3593 2.66193 13.5154 1.81802C12.6714 0.974106 11.5268 0.5 10.3334 0.5C9.1399 0.5 7.99531 0.974106 7.15139 1.81802C6.30748 2.66193 5.83337 3.80653 5.83337 5H2.08337C1.68555 5 1.30402 5.15804 1.02271 5.43934C0.741409 5.72064 0.583374 6.10218 0.583374 6.5V17.75C0.583374 18.1478 0.741409 18.5294 1.02271 18.8107C1.30402 19.092 1.68555 19.25 2.08337 19.25H18.5834C18.9812 19.25 19.3627 19.092 19.644 18.8107C19.9253 18.5294 20.0834 18.1478 20.0834 17.75V6.5C20.0834 6.10218 19.9253 5.72064 19.644 5.43934C19.3627 5.15804 18.9812 5 18.5834 5ZM10.3334 2C11.129 2 11.8921 2.31607 12.4547 2.87868C13.0173 3.44129 13.3334 4.20435 13.3334 5H7.33337C7.33337 4.20435 7.64944 3.44129 8.21205 2.87868C8.77466 2.31607 9.53772 2 10.3334 2Z" fill="white"/>
</svg>
