<svg width="32" height="32" viewBox="0 0 32 32" fill="none" xmlns="http://www.w3.org/2000/svg">
<rect x="0.5" y="0.5" width="31" height="31" rx="15.5" stroke="#E0E0E0"/>
<g clip-path="url(#clip0_3091_8438)">
<path d="M17.75 16C17.75 16.3461 17.6474 16.6845 17.4551 16.9722C17.2628 17.26 16.9895 17.4843 16.6697 17.6168C16.3499 17.7492 15.9981 17.7839 15.6586 17.7164C15.3191 17.6489 15.0073 17.4822 14.7626 17.2374C14.5178 16.9927 14.3512 16.6809 14.2836 16.3414C14.2161 16.0019 14.2508 15.6501 14.3832 15.3303C14.5157 15.0105 14.74 14.7372 15.0278 14.5449C15.3155 14.3526 15.6539 14.25 16 14.25C16.4641 14.25 16.9092 14.4344 17.2374 14.7626C17.5656 15.0908 17.75 15.5359 17.75 16ZM16 12.75C16.3461 12.75 16.6845 12.6474 16.9722 12.4551C17.26 12.2628 17.4843 11.9895 17.6168 11.6697C17.7492 11.3499 17.7839 10.9981 17.7164 10.6586C17.6489 10.3191 17.4822 10.0073 17.2374 9.76256C16.9927 9.51782 16.6809 9.35115 16.3414 9.28363C16.0019 9.2161 15.6501 9.25076 15.3303 9.38321C15.0105 9.51566 14.7372 9.73997 14.5449 10.0278C14.3526 10.3155 14.25 10.6539 14.25 11C14.25 11.4641 14.4344 11.9092 14.7626 12.2374C15.0908 12.5656 15.5359 12.75 16 12.75ZM16 19.25C15.6539 19.25 15.3155 19.3526 15.0278 19.5449C14.74 19.7372 14.5157 20.0105 14.3832 20.3303C14.2508 20.6501 14.2161 21.0019 14.2836 21.3414C14.3512 21.6809 14.5178 21.9927 14.7626 22.2374C15.0073 22.4822 15.3191 22.6489 15.6586 22.7164C15.9981 22.7839 16.3499 22.7492 16.6697 22.6168C16.9895 22.4843 17.2628 22.26 17.4551 21.9723C17.6474 21.6845 17.75 21.3461 17.75 21C17.75 20.5359 17.5656 20.0908 17.2374 19.7626C16.9092 19.4344 16.4641 19.25 16 19.25Z" fill="black"/>
</g>
<defs>
<clipPath id="clip0_3091_8438">
<rect width="16" height="16" fill="white" transform="translate(8 8)"/>
</clipPath>
</defs>
</svg>
