<svg width="52" height="44" viewBox="0 0 52 44" fill="none" xmlns="http://www.w3.org/2000/svg">
<path d="M33.3047 31.3543L33.3038 31.3534C33.1093 31.1579 33.1093 30.8421 33.3038 30.6466L33.3047 30.6457L38.3024 25.648L33.3047 31.3543ZM33.3047 31.3543L42.3037 40.3533C42.3973 40.4469 42.5245 40.5 42.6579 40.5H47.999C48.2757 40.5 48.5 40.2757 48.5 39.999M33.3047 31.3543L48.5 39.999M48.5 39.999V35.3454C48.5 35.212 48.4469 35.0848 48.3533 34.9912L39.0126 25.648C39.0124 25.6478 39.0123 25.6477 39.0121 25.6475M48.5 39.999L39.0121 25.6475M39.0121 25.6475C38.8165 25.4515 38.499 25.4514 38.3032 25.6472L39.0121 25.6475ZM41.1289 23.526L41.129 23.5261L47.6442 30.0388L47.9983 29.6858L47.6448 30.0394L47.6443 30.0389C47.9607 30.3561 48.5 30.1304 48.5 29.6851V4.001C48.5 3.72493 48.2763 3.5 47.999 3.5H4.001C3.72493 3.5 3.5 3.72368 3.5 4.001V27.3401C3.5 27.7863 4.03944 28.0099 4.35513 27.6945L4.35526 27.6943L14.5234 17.5262C14.5235 17.5261 14.5235 17.5261 14.5236 17.5261C15.1799 16.8702 16.0697 16.5019 16.9975 16.5019C17.9253 16.5019 18.8151 16.8702 19.4714 17.5261C19.4715 17.5261 19.4715 17.5261 19.4716 17.5262L30.4707 28.5253C30.6664 28.721 30.9836 28.721 31.1793 28.5253L36.1786 23.5261L36.1786 23.526C36.5036 23.2009 36.8895 22.943 37.3142 22.7671C37.7389 22.5912 38.1941 22.5006 38.6538 22.5006C39.1134 22.5006 39.5686 22.5912 39.9933 22.7671C40.418 22.943 40.8039 23.2009 41.1289 23.526ZM48 29.185C48.123 29.1843 48.2487 29.2295 48.3511 29.3315L48 28.9805V29.185ZM47.6448 29.3324L47.5 29.1877V29.6851C47.5 29.5406 47.557 29.4193 47.6448 29.3324ZM4 0.5H48C48.9283 0.5 49.8185 0.868749 50.4749 1.52513C51.1312 2.1815 51.5 3.07174 51.5 4V40C51.5 40.9283 51.1312 41.8185 50.4749 42.4749C49.8185 43.1312 48.9283 43.5 48 43.5H4C3.07174 43.5 2.1815 43.1312 1.52513 42.4749C0.868749 41.8185 0.5 40.9283 0.5 40V4C0.5 3.07174 0.868749 2.1815 1.52513 1.52513C2.1815 0.868749 3.07174 0.5 4 0.5ZM3.64719 32.6457C3.6471 32.6458 3.64701 32.6459 3.64692 32.646C3.64686 32.646 3.6468 32.6461 3.64674 32.6462C3.55175 32.7411 3.5 32.869 3.5 33.0004V39.999C3.5 40.2759 3.72446 40.5 4.001 40.5H36.9976C37.4418 40.5 37.669 39.9618 37.3518 39.6447L17.3543 19.6472C17.1592 19.4521 16.842 19.4509 16.6457 19.6472L3.64719 32.6457ZM30.5 15C30.5 14.5055 30.6466 14.0222 30.9213 13.6111C31.196 13.2 31.5865 12.8795 32.0433 12.6903C32.5001 12.5011 33.0028 12.4516 33.4877 12.548C33.9727 12.6445 34.4181 12.8826 34.7678 13.2322C35.1174 13.5819 35.3555 14.0273 35.452 14.5123C35.5484 14.9972 35.4989 15.4999 35.3097 15.9567C35.1205 16.4135 34.8 16.804 34.3889 17.0787C33.9778 17.3534 33.4945 17.5 33 17.5C32.337 17.5 31.7011 17.2366 31.2322 16.7678C30.7634 16.2989 30.5 15.663 30.5 15Z" fill="#999999" stroke="white"/>
</svg>
