<svg width="49" height="48" viewBox="0 0 49 48" fill="none" xmlns="http://www.w3.org/2000/svg">
<rect x="0.666626" width="48" height="48" rx="24" fill="black"/>
<g clip-path="url(#clip0_2411_3975)">
<path d="M34.906 26.2405V26.2311C34.9043 26.2241 34.9021 26.2172 34.8994 26.2105C34.8372 26.0407 34.7648 25.8748 34.6828 25.7136L30.7856 16.8561C30.7481 16.7708 30.695 16.6932 30.6291 16.6274C30.3505 16.3487 30.0197 16.1277 29.6557 15.9769C29.2917 15.8261 28.9015 15.7485 28.5075 15.7485C28.1135 15.7485 27.7233 15.8261 27.3593 15.9769C26.9953 16.1277 26.6645 16.3487 26.386 16.6274C26.2458 16.7677 26.1669 16.9578 26.1666 17.1561V19.4999H23.1666V17.1561C23.1667 17.0576 23.1473 16.96 23.1097 16.869C23.072 16.7779 23.0168 16.6952 22.9472 16.6255C22.6686 16.3469 22.3379 16.1258 21.9739 15.975C21.6098 15.8242 21.2197 15.7466 20.8256 15.7466C20.4316 15.7466 20.0415 15.8242 19.6774 15.975C19.3134 16.1258 18.9827 16.3469 18.7041 16.6255C18.6381 16.6914 18.585 16.7689 18.5475 16.8543L14.6541 25.7136C14.5721 25.8748 14.4998 26.0407 14.4375 26.2105C14.4349 26.2169 14.4327 26.2235 14.431 26.2302C14.431 26.2302 14.431 26.2377 14.431 26.2405C14.0438 27.3593 14.113 28.5856 14.6238 29.6536C15.1345 30.7216 16.0455 31.5454 17.1595 31.9463C18.2734 32.3473 19.5004 32.2931 20.5747 31.7956C21.6489 31.298 22.4838 30.3972 22.8985 29.2883C23.081 28.7902 23.1731 28.2635 23.1703 27.733V20.9999H26.1703V27.7339C26.1676 28.2644 26.2596 28.7912 26.4422 29.2893C26.8568 30.3981 27.6917 31.299 28.766 31.7965C29.8403 32.2941 31.0673 32.3482 32.1812 31.9473C33.2951 31.5463 34.2062 30.7226 34.7169 29.6545C35.2276 28.5865 35.2969 27.3602 34.9097 26.2414L34.906 26.2405ZM21.4856 28.7718C21.2087 29.5107 20.6517 30.1108 19.9354 30.442C19.2191 30.7732 18.4011 30.8088 17.6587 30.541C16.9163 30.2733 16.3094 29.7238 15.9693 29.0117C15.6292 28.2996 15.5834 27.4821 15.8419 26.7364L16.0116 26.3493C16.3235 25.7564 16.8248 25.285 17.4357 25.0102C18.0466 24.7353 18.7319 24.6728 19.3824 24.8327C20.0329 24.9925 20.6112 25.3654 21.0252 25.8921C21.4391 26.4187 21.6649 27.0688 21.6666 27.7386V27.7499C21.6665 28.0997 21.6053 28.4468 21.4856 28.7755V28.7718ZM31.6978 30.5689C31.2444 30.7349 30.7575 30.789 30.2786 30.7266C29.7998 30.6641 29.3431 30.487 28.9473 30.2103C28.5516 29.9335 28.2285 29.5653 28.0055 29.137C27.7826 28.7086 27.6663 28.2328 27.6666 27.7499V27.7396C27.6691 27.07 27.8954 26.4205 28.3097 25.8945C28.724 25.3685 29.3023 24.9962 29.9526 24.8369C30.6029 24.6775 31.2878 24.7403 31.8983 25.0152C32.5089 25.2901 33.0099 25.7614 33.3216 26.3539L33.4913 26.7411C33.758 27.4867 33.7192 28.3075 33.3832 29.0246C33.0473 29.7416 32.4414 30.2968 31.6978 30.5689Z" fill="white"/>
</g>
<defs>
<clipPath id="clip0_2411_3975">
<rect width="24" height="24" fill="white" transform="translate(12.6666 12)"/>
</clipPath>
</defs>
</svg>
