<svg width="49" height="48" viewBox="0 0 49 48" fill="none" xmlns="http://www.w3.org/2000/svg">
<rect x="0.333374" width="48" height="48" rx="24" fill="black"/>
<path d="M17.563 16.3954C17.5311 16.2313 17.6913 16.0957 17.8479 16.1542L34.3641 22.3305C34.5464 22.3987 34.5504 22.655 34.3703 22.7288L29.3532 24.7842C28.3704 25.1869 28.0662 26.4311 28.7525 27.2418L32.5569 31.7361C32.6332 31.8263 32.622 31.9612 32.5318 32.0375L31.6679 32.7688L30.8041 33.5001C30.7139 33.5764 30.5789 33.5652 30.5026 33.475L26.6982 28.9807C26.012 28.17 24.7346 28.2646 24.1751 29.1674L21.3191 33.7767C21.2166 33.942 20.9644 33.8958 20.9273 33.7048L17.563 16.3954Z" fill="white" stroke="white" stroke-width="1.35"/>
<path d="M24.0511 14.9868L25.1247 13.0094" stroke="white" stroke-width="1.5" stroke-linecap="round"/>
<path d="M20.8765 14.2578L21.0517 13.0081" stroke="white" stroke-width="1.5" stroke-linecap="round"/>
<path d="M16.1302 23.5776L14.0014 24.3111" stroke="white" stroke-width="1.5" stroke-linecap="round"/>
<path d="M15.6412 20.6416L14.3791 20.6085" stroke="white" stroke-width="1.5" stroke-linecap="round"/>
</svg>
