<svg width="45" height="45" viewBox="0 0 45 45" fill="none" xmlns="http://www.w3.org/2000/svg">
<g clip-path="url(#clip0_154_64)">
<path d="M16.5 28.964L18.7857 16.1068H22.3571L20.1429 28.964H16.5Z" fill="#3C58BF"/>
<path d="M16.5 28.964L19.4286 16.1068H22.3571L20.1429 28.964H16.5Z" fill="#293688"/>
<path d="M33.0711 16.2504C32.3569 15.9647 31.214 15.679 29.7854 15.679C26.214 15.679 23.6426 17.4647 23.6426 20.0361C23.6426 21.9647 25.4283 22.9647 26.8569 23.6075C28.2854 24.2504 28.714 24.679 28.714 25.2504C28.714 26.1075 27.5711 26.5361 26.5711 26.5361C25.1426 26.5361 24.3569 26.3218 23.1426 25.8218L22.6426 25.6075L22.1426 28.5361C22.9997 28.8932 24.5712 29.2504 26.214 29.2504C29.9997 29.2504 32.4997 27.4647 32.4997 24.7504C32.4997 23.2504 31.5711 22.1075 29.4283 21.179C28.1426 20.5361 27.3569 20.179 27.3569 19.5361C27.3569 18.9647 27.9997 18.3932 29.4283 18.3932C30.6426 18.3932 31.4997 18.6075 32.1426 18.8932L32.4997 19.0361L33.0711 16.2504Z" fill="#3C58BF"/>
<path d="M33.0711 16.2504C32.3569 15.9647 31.214 15.679 29.7854 15.679C26.214 15.679 24.2854 17.4647 24.2854 20.0361C24.2854 21.9647 25.4283 22.9647 26.8569 23.6075C28.2854 24.2504 28.714 24.679 28.714 25.2504C28.714 26.1075 27.5711 26.5361 26.5711 26.5361C25.1426 26.5361 24.3569 26.3218 23.1426 25.8218L22.6426 25.6075L22.1426 28.5361C22.9997 28.8932 24.5712 29.2504 26.214 29.2504C29.9997 29.2504 32.4997 27.4647 32.4997 24.7504C32.4997 23.2504 31.5711 22.1075 29.4283 21.179C28.1426 20.5361 27.3569 20.179 27.3569 19.5361C27.3569 18.9647 27.9997 18.3932 29.4283 18.3932C30.6426 18.3932 31.4997 18.6075 32.1426 18.8932L32.4997 19.0361L33.0711 16.2504Z" fill="#293688"/>
<path d="M39.2143 16.1068C38.3571 16.1068 37.7143 16.1782 37.3571 17.0354L32 28.964H35.8571L36.5714 26.8211H41.1429L41.5714 28.964H45L42 16.1068H39.2143ZM37.5714 24.6782C37.7857 24.0354 39 20.8925 39 20.8925C39 20.8925 39.2857 20.1068 39.5 19.6068L39.7143 20.8211C39.7143 20.8211 40.4286 24.0354 40.5714 24.7497H37.5714V24.6782Z" fill="#3C58BF"/>
<path d="M40.0714 16.1068C39.2143 16.1068 38.5714 16.1782 38.2143 17.0354L32 28.964H35.8571L36.5714 26.8211H41.1429L41.5714 28.964H45L42 16.1068H40.0714ZM37.5714 24.6782C37.8571 23.964 39 20.8925 39 20.8925C39 20.8925 39.2857 20.1068 39.5 19.6068L39.7143 20.8211C39.7143 20.8211 40.4286 24.0354 40.5714 24.7497H37.5714V24.6782Z" fill="#293688"/>
<path d="M9.92843 25.1078L9.57129 23.2507C8.92843 21.1078 6.857 18.7507 4.57129 17.6078L7.78557 29.0364H11.6427L17.4284 16.1793H13.5713L9.92843 25.1078Z" fill="#3C58BF"/>
<path d="M9.92843 25.1078L9.57129 23.2507C8.92843 21.1078 6.857 18.7507 4.57129 17.6078L7.78557 29.0364H11.6427L17.4284 16.1793H14.2856L9.92843 25.1078Z" fill="#293688"/>
<path d="M0 16.1068L0.642857 16.2497C5.21429 17.3211 8.35714 20.0354 9.57143 23.2497L8.28572 17.1782C8.07143 16.3211 7.42857 16.1068 6.64286 16.1068H0Z" fill="#FFBC00"/>
<path d="M0 16.1068C4.57143 17.1782 8.35714 19.964 9.57143 23.1782L8.35714 18.1068C8.14286 17.2497 7.42857 16.7497 6.64286 16.7497L0 16.1068Z" fill="#F7981D"/>
<path d="M0 16.1068C4.57143 17.1782 8.35714 19.964 9.57143 23.1782L8.71429 20.3925C8.5 19.5354 8.21429 18.6782 7.21429 18.3211L0 16.1068Z" fill="#ED7C00"/>
<path d="M13.4997 24.6782L11.0711 22.2496L9.92829 24.9639L9.64258 23.1782C8.99972 21.0353 6.92829 18.6782 4.64258 17.5353L7.85686 28.9639H11.714L13.4997 24.6782Z" fill="#051244"/>
<path d="M20.1429 28.9632L17.0714 25.8204L16.5 28.9632H20.1429Z" fill="#051244"/>
<path d="M28.3569 24.535C28.6426 24.8207 28.7854 25.035 28.714 25.3207C28.714 26.1778 27.5712 26.6064 26.5712 26.6064C25.1426 26.6064 24.3569 26.3921 23.1426 25.8921L22.6426 25.6778L22.1426 28.6064C22.9997 28.9635 24.5712 29.3207 26.214 29.3207C28.4997 29.3207 30.3569 28.6778 31.4283 27.535L28.3569 24.535Z" fill="#051244"/>
<path d="M32.5 28.9646H35.8571L36.5714 26.8218H41.1429L41.5714 28.9646H45L43.7857 23.7503L39.5 19.6075L39.7143 20.7503C39.7143 20.7503 40.4286 23.9646 40.5714 24.6789H37.5714C37.8571 23.9646 39 20.8932 39 20.8932C39 20.8932 39.2857 20.1075 39.5 19.6075" fill="#051244"/>
</g>
<defs>
<clipPath id="clip0_154_64">
<rect width="45" height="45" fill="white"/>
</clipPath>
</defs>
</svg>
