<svg width="24" height="17" viewBox="0 0 24 17" fill="none" xmlns="http://www.w3.org/2000/svg">
<g clip-path="url(#clip0_3520_6081)">
<path d="M0 2.5C0 1.39543 0.895431 0.5 2 0.5H22C23.1046 0.5 24 1.39543 24 2.5V14.5C24 15.6046 23.1046 16.5 22 16.5H2C0.89543 16.5 0 15.6046 0 14.5V2.5Z" fill="#D8E3F3"/>
<path d="M20.6553 5.51758H19.398C19.0178 5.51758 18.7254 5.63454 18.55 6.01465L16.1523 11.4825H17.8482C17.8482 11.4825 18.1406 10.7515 18.1991 10.5761C18.3746 10.5761 20.0412 10.5761 20.2752 10.5761C20.3336 10.7807 20.4798 11.4533 20.4798 11.4533H22.0003L20.6553 5.51758ZM18.667 9.34799C18.8132 8.99711 19.3102 7.68132 19.3102 7.68132C19.3102 7.71056 19.4564 7.33044 19.5149 7.12577L19.6319 7.65208C19.6319 7.65208 19.9535 9.08483 20.012 9.37723H18.667V9.34799Z" fill="#3362AB"/>
<path d="M16.2702 9.52325C16.2702 10.7513 15.1591 11.57 13.434 11.57C12.703 11.57 12.0012 11.4238 11.6211 11.2484L11.855 9.90337L12.0597 9.99109C12.586 10.225 12.9369 10.3127 13.5802 10.3127C14.048 10.3127 14.5451 10.1373 14.5451 9.72793C14.5451 9.46478 14.3404 9.28934 13.6971 8.99694C13.0831 8.70454 12.2644 8.23671 12.2644 7.38875C12.2644 6.21916 13.4047 5.42969 15.0129 5.42969C15.6269 5.42969 16.1533 5.54665 16.4749 5.69285L16.241 6.9794L16.124 6.86244C15.8316 6.74548 15.4515 6.62852 14.8959 6.62852C14.2819 6.65776 13.9895 6.92092 13.9895 7.15483C13.9895 7.41799 14.3404 7.62267 14.8959 7.88583C15.8316 8.32442 16.2702 8.8215 16.2702 9.52325Z" fill="#3362AB"/>
<path d="M2 5.57594L2.02924 5.45898H4.54386C4.89474 5.45898 5.15789 5.57594 5.24561 5.95606L5.80117 8.58764C5.24561 7.18413 3.95906 6.04378 2 5.57594Z" fill="#F9B50B"/>
<path d="M9.34037 5.51752L6.79651 11.4532H5.07136L3.60938 6.48243C4.66201 7.15495 5.5392 8.20758 5.86084 8.93857L6.03628 9.55261L7.61522 5.48828H9.34037V5.51752Z" fill="#3362AB"/>
<path d="M10.0117 5.48828H11.6199L10.5965 11.4532H8.98828L10.0117 5.48828Z" fill="#3362AB"/>
</g>
<defs>
<clipPath id="clip0_3520_6081">
<rect width="24" height="16" fill="white" transform="translate(0 0.5)"/>
</clipPath>
</defs>
</svg>
